/* XPM */
static char *close_active[] = {
/* columns rows colors chars-per-pixel */
"24 24 39 1 ",
"  c #2F2F2F",
". c gray19",
"X c #323130",
"o c gray20",
"O c #393733",
"+ c #3A3833",
"@ c #3B3934",
"# c gray22",
"$ c #5B5340",
"% c #5C5441",
"& c #5D5441",
"* c #5D5541",
"= c #625843",
"- c #625943",
"; c #635943",
": c #645A44",
"> c #645B44",
", c #655B45",
"< c #675D45",
"1 c #6D6248",
"2 c #6E6348",
"3 c #706449",
"4 c #73674A",
"5 c #74674A",
"6 c #75684A",
"7 c #76694B",
"8 c #776A4B",
"9 c #9D895A",
"0 c #9E895B",
"q c #9E8A5B",
"w c #9F8B5B",
"e c #B09962",
"r c #B19962",
"t c #B19A62",
"y c #B29A63",
"u c #B69E64",
"i c #B79E64",
"p c #B79E65",
"a c #B89F65",
/* pixels */
"########################",
"oooooooooooooooooooooooo",
"                        ",
"                        ",
"                        ",
"        @7qyy07@        ",
"       %raaaaaar&       ",
"      %paaaaaaaap&      ",
"     @raaeaaaaraar+     ",
"     7aaaX,ii<.aaa6     ",
"     waaa4 -; 2aaa0     ",
"     raaaa3  1aaaar     ",
"     raaap=  *uaaar     ",
"     qaaa> 44 :aaa0     ",
"     7aaa@8aa8@aaa5     ",
"     @raaaaaaaaaaeO     ",
"      &paaaaaaaap$      ",
"       &raaaaaae$       ",
"        +69tt95O        ",
"                        ",
"                        ",
"                        ",
"                        ",
"                        "
};
