/* XPM */
static char *close_pressed[] = {
/* columns rows colors chars-per-pixel */
"24 24 37 1 ",
"  c #2F2F2F",
". c gray19",
"X c #313030",
"o c gray20",
"O c #373531",
"+ c #373532",
"@ c #383632",
"# c gray22",
"$ c #50493A",
"% c #514A3A",
"& c #514A3B",
"* c #544C3B",
"= c #554D3B",
"- c #554D3C",
"; c #564E3C",
": c #574F3D",
"> c #58503D",
", c #5D533F",
"< c #5D543E",
"1 c #5F553F",
"2 c #615740",
"3 c #625740",
"4 c #625840",
"5 c #635841",
"6 c #645941",
"7 c #806F4A",
"8 c #81704A",
"9 c #81704B",
"0 c #82714B",
"q c #8E7B4F",
"w c #8F7B4F",
"e c #8F7B50",
"r c #907C50",
"t c #937E50",
"y c #937E51",
"u c #937F51",
"i c #947F51",
/* pixels */
"########################",
"oooooooooooooooooooooooo",
"                        ",
"                        ",
"                        ",
"        @69rr85@        ",
"       $qiiiiiiq&       ",
"      $yiiiiiiiiy&      ",
"     @qiiqiiiieiie+     ",
"     6iiiX:tt>.iii4     ",
"     0iii2 =- <iii8     ",
"     qiiii1  ,iiiiq     ",
"     qiiiu*  %yiiie     ",
"     9iii; 22 ;iii8     ",
"     5iii@6ii6@iii3     ",
"     @qiiiiiiiiiiqO     ",
"      &yiiiiiiiiy$      ",
"       &eiiiiiiq$       ",
"        +47ww73O        ",
"                        ",
"                        ",
"                        ",
"                        ",
"                        "
};
