/* XPM */
static char *close_active[] = {
/* columns rows colors chars-per-pixel */
"24 24 26 1 ",
"  c #767676",
". c gray48",
"X c #7B7B7B",
"o c #888888",
"O c #898989",
"+ c #8B8B8B",
"@ c gray55",
"# c #8D8D8D",
"$ c #AEAEAE",
"% c #AFAFAF",
"& c gray70",
"* c #B7B7B7",
"= c #BCBCBD",
"- c #BEBEBF",
"; c #BFBFC0",
": c #C0C0C1",
"> c #C2C2C3",
", c #CBCBCB",
"< c #CDCDCD",
"1 c #CECECE",
"2 c gray81",
"3 c gray84",
"4 c #D7D7D7",
"5 c gray85",
"6 c gray92",
"7 c #F8F8F9",
/* pixels */
"666666666666666666666666",
"555555555555555555555555",
"555555555555555555555555",
"555555555555555555555555",
"555555555555555555555555",
"555555555555555555555555",
"555555553$@..@$355555555",
"55555551o      O15555555",
"5555553o        O3555555",
"555555$  ;:  ;;  %555555",
"555555+  &7<,7*  @555555",
"555555.   ;77>   X555555",
"555555.   1772   X555555",
"555555+  -7==7-  @555555",
"555555$  &%  %&  %555555",
"5555553O        O4555555",
"55555551O      O15555555",
"555555554%@..#%455555555",
"555555555555555555555555",
"555555555555555555555555",
"555555555555555555555555",
"555555555555555555555555",
"555555555555555555555555",
"555555555555555555555555"
};
