/* XPM */
static char *close_prelight[] = {
/* columns rows colors chars-per-pixel */
"24 24 24 1 ",
"  c #989898",
". c #9A9A9A",
"X c #9B9B9B",
"o c #A4A4A4",
"O c gray65",
"+ c #A7A7A7",
"@ c gray74",
"# c #C0C0C0",
"$ c #C3C3C3",
"% c gray77",
"& c #C6C6C6",
"* c #CACACB",
"= c #CBCBCC",
"- c #CCCCCD",
"; c #CDCDCE",
": c #CFCFD0",
"> c #D2D2D2",
", c #D5D5D5",
"< c gray84",
"1 c #D7D7D7",
"2 c #D8D8D8",
"3 c gray85",
"4 c gray92",
"5 c #F8F8F9",
/* pixels */
"444444444444444444444444",
"333333333333333333333333",
"333333333333333333333333",
"333333333333333333333333",
"333333333333333333333333",
"333333333333333333333333",
"333333331@O..O@133333333",
"3333333>o      o>3333333",
"3333331o        o1333333",
"333333@  -;  --  @333333",
"333333O  %5<,5&  +333333",
"333333X   -55:   X333333",
"333333X   <552   X333333",
"333333O  =5**5=  +333333",
"333333@  $#  #$  @333333",
"3333331o        o2333333",
"3333333>o      o>3333333",
"333333332@+XX+@233333333",
"333333333333333333333333",
"333333333333333333333333",
"333333333333333333333333",
"333333333333333333333333",
"333333333333333333333333",
"333333333333333333333333"
};
