/* XPM */
static char *close_active[] = {
/* columns rows colors chars-per-pixel */
"24 24 37 1 ",
"  c #2F2F2F",
". c gray19",
"X c #303131",
"o c gray20",
"O c #323736",
"+ c #323837",
"@ c #333837",
"# c gray22",
"$ c #3C524E",
"% c #3C534E",
"& c #3D534F",
"* c #3C544F",
"= c #3D5752",
"- c #3E5852",
"; c #3E5853",
": c #3E5954",
"> c #3F5A54",
", c #3F5A55",
"< c #3F5C56",
"1 c #41605A",
"2 c #41615B",
"3 c #42635C",
"4 c #43655E",
"5 c #43665F",
"6 c #43675F",
"7 c #446760",
"8 c #446861",
"9 c #4F867B",
"0 c #4F877C",
"q c #50887C",
"w c #50887D",
"e c #559689",
"r c #559789",
"t c #55978A",
"y c #569B8D",
"u c #579B8D",
"i c #579C8E",
/* pixels */
"########################",
"oooooooooooooooooooooooo",
"                        ",
"                        ",
"                        ",
"        @8qtt07@        ",
"       %eiiiiiie&       ",
"      %uiiiiiiiiu&      ",
"     @eiieiiiieiie+     ",
"     8iiiX,yy<.iii6     ",
"     wiii4 -; 2iii0     ",
"     eiiii3  1iiiie     ",
"     eiiiu=  *uiiie     ",
"     qiii> 44 :iii0     ",
"     7iii@8ii8@iii5     ",
"     @eiiiiiiiiiieO     ",
"      &uiiiiiiiiu$      ",
"       &eiiiiiie$       ",
"        +69rr95O        ",
"                        ",
"                        ",
"                        ",
"                        ",
"                        "
};
