/* XPM */
static char *close_pressed[] = {
/* columns rows colors chars-per-pixel */
"24 24 36 1 ",
"  c #2F2F2F",
". c gray19",
"X c #303130",
"o c gray20",
"O c #313534",
"+ c #313635",
"@ c #323635",
"# c gray22",
"$ c #394A47",
"% c #394B47",
"& c #3A4B48",
"* c #3A4E4A",
"= c #3B4F4B",
"- c #3B504C",
"; c #3C504C",
": c #3C514D",
"> c #3D5550",
", c #3D5651",
"< c #3E5752",
"1 c #3E5953",
"2 c #3F5953",
"3 c #3E5954",
"4 c #3F5A54",
"5 c #3F5A55",
"6 c #3F5B55",
"7 c #487269",
"8 c #48736A",
"9 c #49746B",
"0 c #4C7E74",
"q c #4C7F74",
"w c #4D7F74",
"e c #4D7F75",
"r c #4D8277",
"t c #4E8277",
"y c #4E8278",
"u c #4E8378",
/* pixels */
"########################",
"oooooooooooooooooooooooo",
"                        ",
"                        ",
"                        ",
"        @68ee85@        ",
"       %0uuuuuu0&       ",
"      %yuuuuuuuuy&      ",
"     @0uu0uuuuwuuw+     ",
"     6uuuX;rr:.uuu4     ",
"     9uuu2 *= ,uuu8     ",
"     0uuuu<  >uuuu0     ",
"     0uuuy*  %tuuuw     ",
"     8uuu- 11 =uuu8     ",
"     5uuu@6uu6@uuu3     ",
"     @0uuuuuuuuuu0O     ",
"      &yuuuuuuuuy$      ",
"       &wuuuuuu0$       ",
"        +47qq73O        ",
"                        ",
"                        ",
"                        ",
"                        ",
"                        "
};
