/* XPM */
static char *close_active[] = {
/* columns rows colors chars-per-pixel */
"24 24 34 1 ",
"  c #2F2F2F",
". c #302E2E",
"X c #302F2F",
"o c #322F2F",
"O c #332F2F",
"+ c #3E2D2E",
"@ c #323232",
"# c #373737",
"$ c #6B272D",
"% c #6C272D",
"& c #6D272D",
"* c #77252C",
"= c #79252C",
"- c #7A252C",
"; c #7B252C",
": c #B61D2A",
"> c #B71D2A",
", c #B81D2A",
"< c #BE1C2A",
"1 c #85232C",
"2 c #87232C",
"3 c #84242C",
"4 c #8F222B",
"5 c #88232C",
"6 c #89232C",
"7 c #92212B",
"8 c #95212B",
"9 c #92222C",
"0 c #9E202B",
"q c #9F202B",
"w c #9F212C",
"e c #A0202B",
"r c #A3202B",
"t c #A4202B",
/* pixels */
"########################",
"@@@@@@@@@@@@@@@@@@@@@@@@",
"                        ",
"                        ",
"                        ",
"                        ",
"        O&q,,q%O        ",
"       +t<<<<<<r+       ",
"      Ot<<<<<<<<rO      ",
"      &<<51<<55<<$      ",
"      e<<9X-;X4<<0      ",
"      ><<<2XX3<<<:      ",
"      ><<<=..*<<<:      ",
"      e<<5.66.5<<0      ",
"      %<<78<<87<<$      ",
"      Or<<<<<<<<ro      ",
"       +r<<<<<<r+       ",
"        o$0>>w$o        ",
"                        ",
"                        ",
"                        ",
"                        ",
"                        ",
"                        "
};
