/* XPM */
static char *close_active[] = {
/* columns rows colors chars-per-pixel */
"24 24 24 1 ",
"  c #2F2F2F",
". c gray19",
"X c #313131",
"o c #323232",
"O c gray21",
"+ c #373737",
"@ c gray30",
"# c #4E4E4E",
"$ c #535353",
"% c gray33",
"& c #555555",
"* c gray35",
"= c #5A5A5A",
"- c #5B5B5B",
"; c gray36",
": c #5F5F5F",
"> c #606060",
", c #626262",
"< c gray40",
"1 c #676767",
"2 c DimGray",
"3 c #727272",
"4 c gray45",
"5 c #767676",
/* pixels */
"++++++++++++++++++++++++",
"oooooooooooooooooooooooo",
"                        ",
"                        ",
"                        ",
"                        ",
"        X#1441@X        ",
"       O25555552O       ",
"      X2555555552X      ",
"      #55-=55--55@      ",
"      155>.%& :55<      ",
"      3555-  *5553      ",
"      3555%  $5553      ",
"      155; -- ;55<      ",
"      @55>,55,>55@      ",
"      X2555555552X      ",
"       O25555552O       ",
"        X@<331@X        ",
"                        ",
"                        ",
"                        ",
"                        ",
"                        ",
"                        "
};
