/* XPM */
static char *close_prelight[] = {
/* columns rows colors chars-per-pixel */
"24 24 25 1 ",
"  c #2F2F2F",
". c gray19",
"X c #323232",
"o c #373737",
"O c #3A3A3A",
"+ c #5B5B5B",
"@ c gray36",
"# c #5D5D5D",
"$ c #646464",
"% c #656565",
"& c gray40",
"* c #676767",
"= c gray43",
"- c gray44",
"; c #717171",
": c #767676",
"> c gray47",
", c gray48",
"< c #818181",
"1 c gray51",
"2 c #848484",
"3 c gray52",
"4 c #929292",
"5 c #939393",
"6 c #989898",
/* pixels */
"oooooooooooooooooooooooo",
"XXXXXXXXXXXXXXXXXXXXXXXX",
"                        ",
"                        ",
"                        ",
"                        ",
"        X#<55<@X        ",
"       O36666662O       ",
"      X3666666662X      ",
"      #66-=66--66+      ",
"      166>.&*.:66<      ",
"      5666-..=6664      ",
"      5666%..$6664      ",
"      166;.;;.;66<      ",
"      @66>,66,>66+      ",
"      X2666666662X      ",
"       O26666662O       ",
"        X+<55<+X        ",
"                        ",
"                        ",
"                        ",
"                        ",
"                        ",
"                        "
};
