/* XPM */
static char *close_active[] = {
/* columns rows colors chars-per-pixel */
"24 24 35 1 ",
"  c #2F2F2F",
". c #2E2F30",
"X c #2F2F30",
"o c #2F3030",
"O c #2F3132",
"+ c #2F3133",
"@ c #2E363D",
"# c #323232",
"$ c #373737",
"% c #2A4968",
"& c #2A4A68",
"* c #2B4A69",
"= c #294E73",
"- c #294F74",
"; c #294F75",
": c #295077",
"> c #28547F",
", c #285480",
"< c #285581",
"1 c #285682",
"2 c #285683",
"3 c #275989",
"4 c #275A8C",
"5 c #275B8F",
"6 c #285A8C",
"7 c #265F97",
"8 c #265F98",
"9 c #276098",
"0 c #266099",
"q c #26619C",
"w c #26629D",
"e c #2469AE",
"r c #246AAE",
"t c #246AAF",
"y c #246DB5",
/* pixels */
"$$$$$$$$$$$$$$$$$$$$$$$$",
"########################",
"                        ",
"                        ",
"                        ",
"                        ",
"        +*8tt8&+        ",
"       @wyyyyyyq@       ",
"      +wyyyyyyyyq+      ",
"      *yy1,yy11yy%      ",
"      0yy6o;:X3yy7      ",
"      ryyy<XX>yyye      ",
"      ryyy-..=yyye      ",
"      0yy2.22.2yy7      ",
"      &yy45yy54yy%      ",
"      +qyyyyyyyyqO      ",
"       @qyyyyyyq@       ",
"        O%7rr9%O        ",
"                        ",
"                        ",
"                        ",
"                        ",
"                        ",
"                        "
};
