/* XPM */
static char *close_prelight[] = {
/* columns rows colors chars-per-pixel */
"24 24 42 1 ",
"  c #2F2F2F",
". c #313030",
"X c #323031",
"o c gray20",
"O c #3B3438",
"+ c #3C3538",
"@ c #3C3539",
"# c gray22",
"$ c #614654",
"% c #624655",
"& c #634656",
"* c #624756",
"= c #68495A",
"- c #69495A",
"; c #694A5B",
": c #6A4A5C",
"> c #6B4A5C",
", c #6C4B5D",
"< c #6E4C5E",
"1 c #754F64",
"2 c #764F64",
"3 c #785166",
"4 c #7B5269",
"5 c #7C5269",
"6 c #7D5269",
"7 c #7D536A",
"8 c #7E536B",
"9 c #7F546B",
"0 c #80536C",
"q c #AB678C",
"w c #AB688D",
"e c #AC688D",
"r c #AD688E",
"t c #C0719C",
"y c #C1719D",
"u c #C2719D",
"i c #C1729D",
"p c #C2729E",
"a c #C774A1",
"s c #C774A2",
"d c #C875A2",
"f c #C975A3",
/* pixels */
"########################",
"oooooooooooooooooooooooo",
"                        ",
"                        ",
"                        ",
"        @9eppw8@        ",
"       %yffffffy*       ",
"      %dffffffffd*      ",
"     @yfftffffiffi+     ",
"     9fffX,ss<.fff7     ",
"     rfff4 -; 2fffw     ",
"     yffff3  1ffffy     ",
"     yfffd=  &afffi     ",
"     efff> 55 :fffw     ",
"     8fff@0ff0@fff6     ",
"     @yfffffffffftO     ",
"      *dffffffffd$      ",
"       *ifffffft$       ",
"        +7quuq6O        ",
"                        ",
"                        ",
"                        ",
"                        ",
"                        "
};
