/* XPM */
static char *close_pressed[] = {
/* columns rows colors chars-per-pixel */
"24 24 39 1 ",
"  c #2F2F2F",
". c gray19",
"X c #313030",
"o c gray20",
"O c #363134",
"+ c #373134",
"@ c #383235",
"# c gray22",
"$ c #4F3945",
"% c #503945",
"& c #503946",
"* c #533A48",
"= c #543A48",
"- c #553A49",
"; c #553B49",
": c #563B4A",
"> c #583B4B",
", c #5C3D4E",
"< c #5D3D4E",
"1 c #5E3E50",
"2 c #603E51",
"3 c #613E51",
"4 c #613E52",
"5 c #633E52",
"6 c #623F52",
"7 c #633F53",
"8 c #7E4765",
"9 c #7F4766",
"0 c #804866",
"q c #804867",
"w c #8C4B6F",
"e c #8D4B6F",
"r c #8D4B70",
"t c #8D4C70",
"y c #8E4C70",
"u c #914C72",
"i c #914D72",
"p c #914D73",
"a c #924D73",
/* pixels */
"########################",
"oooooooooooooooooooooooo",
"                        ",
"                        ",
"                        ",
"        @70yy96@        ",
"       %eaaaaaae&       ",
"      %paaaaaaaap&      ",
"     @eaawaaaataat+     ",
"     7aaaX:uu>.aaa4     ",
"     qaaa2 =- <aaa9     ",
"     eaaaa1  ,aaaae     ",
"     eaaap*  &iaaat     ",
"     0aaa: 22 ;aaa9     ",
"     6aaa@5aa5@aaa3     ",
"     @eaaaaaaaaaawO     ",
"      &paaaaaaaap$      ",
"       &taaaaaaw$       ",
"        +48rr83O        ",
"                        ",
"                        ",
"                        ",
"                        ",
"                        "
};
