/* XPM */
static char *close_prelight[] = {
/* columns rows colors chars-per-pixel */
"24 24 32 1 ",
"  c #47BAD1",
". c #4DBBD1",
"X c #4EBBD1",
"o c #4EBCD1",
"O c #62C0D2",
"+ c #63C0D3",
"@ c #66C1D3",
"# c #67C1D3",
"$ c #68C1D3",
"% c #9ACBD5",
"& c #9ACCD5",
"* c #9BCCD6",
"= c #96D1DD",
"- c #9CD3DE",
"; c #9DD4DF",
": c #A1D5E0",
"> c #AAD7E2",
", c #ACD8E2",
"< c #ADD9E2",
"1 c #ADD9E3",
"2 c #AFD9E3",
"3 c #B1DBE4",
"4 c #BEDFE5",
"5 c #CAD6D8",
"6 c #D5D8D9",
"7 c #D6D8D9",
"8 c gray85",
"9 c #C0E0E6",
"0 c #C1E0E6",
"q c #C3E1E7",
"w c gray92",
"e c #F8F8F9",
/* pixels */
"wwwwwwwwwwwwwwwwwwwwwwww",
"888888888888888888888888",
"888888888888888888888888",
"888888888888888888888888",
"888888888888888888888888",
"888888888888888888888888",
"888888886%#..#&688888888",
"88888885O      +58888888",
"8888886O        +6888888",
"888888%  <2  <<  *888888",
"888888@  ;e94e:  #888888",
"888888X   1ee3   o888888",
"888888X   0eeq   o888888",
"888888@  ,e>>e,  #888888",
"888888&  -=  =-  *888888",
"8888886+        +7888888",
"88888885+      +58888888",
"888888887*#XX$*788888888",
"888888888888888888888888",
"888888888888888888888888",
"888888888888888888888888",
"888888888888888888888888",
"888888888888888888888888",
"888888888888888888888888"
};
