/* XPM */
static char *close_prelight[] = {
/* columns rows colors chars-per-pixel */
"24 24 41 1 ",
"  c #6E82C6",
". c #6F82C6",
"X c #7084C6",
"o c #7185C7",
"O c #7285C6",
"+ c #7386C7",
"@ c #7487C7",
"# c #7587C7",
"$ c #7284C8",
"% c #7C8ECA",
"& c #7D8ECA",
"* c #8292CA",
"= c #8293CA",
"- c #8393CA",
"; c #8394CA",
": c #A2ACCF",
"> c #A3ADCF",
", c #A3ADD0",
"< c #B6BCD3",
"1 c #B6BDD3",
"2 c #CFD1D7",
"3 c #D0D2D7",
"4 c #D1D2D8",
"5 c gray85",
"6 c #CBD0E3",
"7 c #CDD2E4",
"8 c #CED3E5",
"9 c #D1D6E6",
"0 c #D3D7E7",
"q c #D4D8E7",
"w c #DADDE8",
"e c #DCDFE9",
"r c #DCDFEA",
"t c #DDE0E9",
"y c #DDE0EA",
"u c #DEE1EA",
"i c #E1E3EC",
"p c #EEEEEE",
"a c #F5F5F7",
"s c #F7F7F8",
"d c #F8F8F9",
/* pixels */
"pppppppppppppppppppppppp",
"555555555555555555555555",
"555555555555555555555555",
"555555555555555555555555",
"555555555555555555555555",
"555555552:=OO-,255555555",
"5555555<+      +15555555",
"555555<.        .1555555",
"555552+  &    %  @355555",
"55555:   seXXwd   :55555",
"55555*   8dytd0   -55555",
"55555+    9ddq    +55555",
"55555+   $uddio   @55555",
"55555=   rd77dy   -55555",
"55555,   a6  6a   >55555",
"555552+          #455555",
"5555551.        .1555555",
"55555551@      #15555555",
"555555553:;++;>455555555",
"555555555555555555555555",
"555555555555555555555555",
"555555555555555555555555",
"555555555555555555555555",
"555555555555555555555555"
};
