/* XPM */
static char *close_active[] = {
/* columns rows colors chars-per-pixel */
"24 24 42 1 ",
"  c #5B73C4",
". c #5C74C4",
"X c #5D75C4",
"o c #5F77C6",
"O c #6076C5",
"+ c #6077C5",
"@ c #6178C5",
"# c #6279C5",
"$ c #6379C5",
"% c #6B80C8",
"& c #6C81C8",
"* c #7286C8",
"= c #7386C8",
"- c #7487C8",
"; c #7487C9",
": c #98A5CE",
"> c #99A5CE",
", c #99A5CF",
"< c #AFB7D2",
"1 c #B0B8D2",
"2 c #B0B8D3",
"3 c #CED0D7",
"4 c #CFD1D7",
"5 c gray85",
"6 c #C5CCE2",
"7 c #C9CFE4",
"8 c #CAD0E4",
"9 c #CCD2E5",
"0 c #CFD4E6",
"q c #D0D5E6",
"w c #D6DAE8",
"e c #D9DCE9",
"r c #D9DDE9",
"t c #DADDE9",
"y c #DADEE9",
"u c #DBDEEA",
"i c #DBDFEA",
"p c #DFE2EC",
"a c #EEEEEE",
"s c #F5F5F7",
"d c #F7F7F8",
"f c #F8F8F9",
/* pixels */
"aaaaaaaaaaaaaaaaaaaaaaaa",
"555555555555555555555555",
"555555555555555555555555",
"555555555555555555555555",
"555555555555555555555555",
"555555553:=++-,355555555",
"5555555<@      @25555555",
"555555<.        .2555555",
"555553@  &    %  #355555",
"55555:   deXXwf   :55555",
"55555*   8fuyf0   -55555",
"55555@    9ffq    @55555",
"55555@   oiffpO   #55555",
"55555=   rf77ft   -55555",
"55555,   s6  6s   >55555",
"555553@          $455555",
"5555552.        .1555555",
"55555552#      $15555555",
"555555553:;@@;>455555555",
"555555555555555555555555",
"555555555555555555555555",
"555555555555555555555555",
"555555555555555555555555",
"555555555555555555555555"
};
