/* XPM */
static char *close_active[] = {
/* columns rows colors chars-per-pixel */
"24 24 33 1 ",
"  c #2F2F2F",
". c #2E3030",
"X c #2F3030",
"o c #2E3132",
"O c #2E3233",
"+ c #2B393B",
"@ c #323232",
"# c #373737",
"$ c #1F5661",
"% c #1F5662",
"& c #1F5762",
"* c #1C5D6A",
"= c #1B5E6C",
"- c #1B5F6D",
"; c #1B606E",
": c #176676",
"> c #186675",
", c #176979",
"< c #156D7E",
"1 c #186878",
"2 c #186979",
"3 c #146E81",
"4 c #156F81",
"5 c #137183",
"6 c #11768B",
"7 c #11778B",
"8 c #12778B",
"9 c #11788C",
"0 c #107A8F",
"q c #107A90",
"w c #0B869F",
"e c #0B87A0",
"r c #098BA5",
/* pixels */
"########################",
"@@@@@@@@@@@@@@@@@@@@@@@@",
"                        ",
"                        ",
"                        ",
"                        ",
"        O&7ee7%O        ",
"       +qrrrrrr0+       ",
"      Oqrrrrrrrr0O      ",
"      &rr1:rr11rr$      ",
"      9rr4X-;X<rr6      ",
"      wrrr1XX>rrrw      ",
"      wrrr=..*rrrw      ",
"      9rr2.,,.2rr6      ",
"      %rr35rr53rr$      ",
"      O0rrrrrrrr0o      ",
"       +0rrrrrr0+       ",
"        o$6ww8$o        ",
"                        ",
"                        ",
"                        ",
"                        ",
"                        ",
"                        "
};
