/* XPM */
static char *close_prelight[] = {
/* columns rows colors chars-per-pixel */
"24 24 40 1 ",
"  c #AD9078",
". c #AD9079",
"X c #AF927A",
"o c #AE937B",
"O c #AF927C",
"+ c #AF937C",
"@ c #AF947D",
"# c #B0957E",
"$ c #B39A84",
"% c #B59B86",
"& c #B59D8A",
"* c #B59E8A",
"= c #B69E8B",
"- c #B69F8B",
"; c #C2B3A7",
": c #C3B4A7",
"> c #C3B4A8",
", c #CBC1B9",
"< c #CBC1BA",
"1 c #DCD4CD",
"2 c #D5D2D0",
"3 c #D5D3D1",
"4 c #D6D3D1",
"5 c #DDD6D1",
"6 c #DDD6D2",
"7 c #DFD8D4",
"8 c gray85",
"9 c #E0DAD6",
"0 c #E1DBD7",
"q c #E4DFDB",
"w c #E5E1DD",
"e c #E6E1DE",
"r c #E6E2DE",
"t c #E6E2DF",
"y c #E7E3DF",
"u c #E8E5E3",
"i c #EEEEEE",
"p c #F5F5F6",
"a c #F7F7F8",
"s c #F8F8F9",
/* pixels */
"iiiiiiiiiiiiiiiiiiiiiiii",
"888888888888888888888888",
"888888888888888888888888",
"888888888888888888888888",
"888888888888888888888888",
"888888882:*++=>288888888",
"8888888,@      @<8888888",
"888888,.        .<888888",
"888882@  %    $  @388888",
"88888:   awXXqs   ;88888",
"88888&   6strs9   =88888",
"88888@    7ss0    @88888",
"88888@   Oyssuo   @88888",
"88888*   es55sr   =88888",
"88888>   p1  1p   >88888",
"888882@          #488888",
"888888<.        .<888888",
"8888888<@      #<8888888",
"888888883;-++->488888888",
"888888888888888888888888",
"888888888888888888888888",
"888888888888888888888888",
"888888888888888888888888",
"888888888888888888888888"
};
