/* XPM */
static char *close_pressed[] = {
/* columns rows colors chars-per-pixel */
"24 24 32 1 ",
"  c #796555",
". c #7A6656",
"X c #7D6A5A",
"o c #7D6A5B",
"O c #7E6B5C",
"+ c #7F6C5D",
"@ c #8B7A6D",
"# c #8B7B6E",
"$ c #8C7C6F",
"% c #A89D95",
"& c #A89E96",
"* c #B9B3AD",
"= c #BAB3AE",
"- c #BEB5AD",
"; c #C0B7AF",
": c #C3BAB2",
"> c #C3BAB3",
", c #C4BBB4",
"< c #C6BDB6",
"1 c #C6BEB7",
"2 c #C7BEB8",
"3 c #C9C1BB",
"4 c #CAC2BC",
"5 c #CCC4BE",
"6 c #D0CFCD",
"7 c #D1CFCE",
"8 c #D1D0CF",
"9 c gray85",
"0 c #EEEEEE",
"q c #FCFBFB",
"w c #FDFDFC",
"e c white",
/* pixels */
"000000000000000000000000",
"999999999999999999999999",
"999999999999999999999999",
"999999999999999999999999",
"999999999999999999999999",
"999999996%#XX$&699999999",
"9999999*O      O=9999999",
"999999*.        .=999999",
"999996O          O799999",
"99999%   q;  -w   %99999",
"99999@   <e>:e4   $99999",
"99999o   .2ee5.   O99999",
"99999O   .,ee3.   O99999",
"99999#   :e11e>   $99999",
"99999&   q>..>q   &99999",
"999996O          +899999",
"999999=.        .=999999",
"9999999=O      +=9999999",
"999999997%$oo$&899999999",
"999999999999999999999999",
"999999999999999999999999",
"999999999999999999999999",
"999999999999999999999999",
"999999999999999999999999"
};
