/* XPM */
static char *close_active[] = {
/* columns rows colors chars-per-pixel */
"24 24 40 1 ",
"  c #AA876A",
". c #AA876B",
"X c #AB8A6D",
"o c #AC896C",
"O c #AC896E",
"+ c #AC8A6E",
"@ c #AC8B6F",
"# c #AC8B70",
"$ c #AD8C70",
"% c #AD8C71",
"& c #B19278",
"* c #B29379",
"= c #B3967E",
"- c #B3977F",
"; c #B39780",
": c #B49880",
"> c #C1AFA0",
", c #C1AFA1",
"< c #CABEB4",
"1 c #CABEB5",
"2 c #D5D2CF",
"3 c #DBD1CA",
"4 c #DCD4CD",
"5 c #DDD4CE",
"6 c #D5D2D0",
"7 c #D5D3D0",
"8 c #DFD6D1",
"9 c gray85",
"0 c #E0D8D3",
"q c #E0D9D4",
"w c #E3DED9",
"e c #E5E0DB",
"r c #E5E0DC",
"t c #E6E0DC",
"y c #E6E1DD",
"u c #E8E4E2",
"i c #EEEEEE",
"p c #F5F5F6",
"a c #F7F7F8",
"s c #F8F8F9",
/* pixels */
"iiiiiiiiiiiiiiiiiiiiiiii",
"999999999999999999999999",
"999999999999999999999999",
"999999999999999999999999",
"999999999999999999999999",
"999999992>-++;>299999999",
"9999999<#      #19999999",
"999999<.        .1999999",
"999992#  *    &  $699999",
"99999>   aeoows   >99999",
"99999=   5syts0   ;99999",
"99999#    8ssq    #99999",
"99999#   OyssuX   $99999",
"99999-   rs44sr   ;99999",
"99999>   p3  3p   ,99999",
"999992#          %799999",
"9999991.        .1999999",
"99999991$      %19999999",
"999999996>:@@:,799999999",
"999999999999999999999999",
"999999999999999999999999",
"999999999999999999999999",
"999999999999999999999999",
"999999999999999999999999"
};
