/* XPM */
static char *close_prelight[] = {
/* columns rows colors chars-per-pixel */
"24 24 41 1 ",
"  c #6DBBAB",
". c #6EBBAB",
"X c #6FBDAD",
"o c #70BCAC",
"O c #71BCAD",
"+ c #71BDAD",
"@ c #72BCAD",
"# c #73BDAE",
"$ c #74BDAE",
"% c #7BC1B2",
"& c #7CC1B3",
"* c #81C1B3",
"= c #81C1B4",
"- c #82C1B4",
"; c #83C1B4",
": c #A2C9C1",
"> c #A1CAC2",
", c #A2CAC2",
"< c #B5CFCA",
"1 c #B6CFCA",
"2 c #B6D0CA",
"3 c #CFD6D5",
"4 c #D0D6D5",
"5 c #D1D7D5",
"6 c gray85",
"7 c #CAE0DB",
"8 c #CDE1DE",
"9 c #CEE1DE",
"0 c #D1E2E0",
"q c #D2E3E1",
"w c #D4E4E1",
"e c #D9E6E4",
"r c #DCE7E5",
"t c #DCE8E5",
"y c #DDE8E6",
"u c #DEE9E7",
"i c #E1EAE9",
"p c #EEEEEE",
"a c #F5F5F6",
"s c #F7F7F8",
"d c #F8F8F9",
/* pixels */
"pppppppppppppppppppppppp",
"666666666666666666666666",
"666666666666666666666666",
"666666666666666666666666",
"666666666666666666666666",
"666666663>=OO-,366666666",
"6666666<@      @26666666",
"666666<.        .2666666",
"666663@  &    %  #466666",
"66666>   srXXed   :66666",
"66666*   9dyydq   -66666",
"66666@    0ddw    @66666",
"66666@   +uddio   #66666",
"66666=   td88dy   -66666",
"66666,   a7  7a   ,66666",
"666663@          $566666",
"6666662.        .1666666",
"66666662#      $16666666",
"666666664:;@@;,566666666",
"666666666666666666666666",
"666666666666666666666666",
"666666666666666666666666",
"666666666666666666666666",
"666666666666666666666666"
};
