/* XPM */
static char *close_pressed[] = {
/* columns rows colors chars-per-pixel */
"24 24 35 1 ",
"  c #4E8378",
". c #4F8379",
"X c #4F8479",
"o c #54867C",
"O c #54877C",
"+ c #55877D",
"@ c #56887D",
"# c #56887E",
"$ c #68938A",
"% c #69948B",
"& c #6A948B",
"* c #91ADA7",
"= c #92ADA7",
"- c #92ADA8",
"; c #ABBDB9",
": c #ACBDBA",
"> c #AAC3BE",
", c #ACC5BF",
"< c #AFC7C2",
"1 c #B0C8C3",
"2 c #B1C9C4",
"3 c #B3CAC5",
"4 c #B4CAC6",
"5 c #B5CBC6",
"6 c #B8CDC9",
"7 c #B9CECA",
"8 c #BCD0CC",
"9 c #CDD1D0",
"0 c #CDD2D1",
"q c #CED2D1",
"w c gray85",
"e c #EEEEEE",
"r c #FBFCFC",
"t c #FCFDFD",
"y c white",
/* pixels */
"eeeeeeeeeeeeeeeeeeeeeeee",
"wwwwwwwwwwwwwwwwwwwwwwww",
"wwwwwwwwwwwwwwwwwwwwwwww",
"wwwwwwwwwwwwwwwwwwwwwwww",
"wwwwwwwwwwwwwwwwwwwwwwww",
"wwwwwwww9*$oo%-9wwwwwwww",
"wwwwwww;+      +:wwwwwww",
"wwwwww;.        .:wwwwww",
"wwwww9+          @0wwwww",
"wwwww*   r,  >t   =wwwww",
"wwwww$   3y1<y7   %wwwww",
"wwwwwO   .5yy8X   +wwwww",
"wwwww+   .2yy6.   @wwwww",
"wwwww$   <y44y1   %wwwww",
"wwwww-   r1..1r   -wwwww",
"wwwww9+          #qwwwww",
"wwwwww:.        .:wwwwww",
"wwwwwww:@      #:wwwwwww",
"wwwwwwww0=&OO&-qwwwwwwww",
"wwwwwwwwwwwwwwwwwwwwwwww",
"wwwwwwwwwwwwwwwwwwwwwwww",
"wwwwwwwwwwwwwwwwwwwwwwww",
"wwwwwwwwwwwwwwwwwwwwwwww",
"wwwwwwwwwwwwwwwwwwwwwwww"
};
