/* XPM */
static char *close_active[] = {
/* columns rows colors chars-per-pixel */
"24 24 40 1 ",
"  c #5AAA9A",
". c #5BAA9A",
"X c #5FAB9D",
"o c #5CAC9C",
"O c #5EAC9C",
"+ c #5FAC9C",
"@ c #60AC9D",
"# c #61AD9E",
"$ c #62AD9E",
"% c #6AB1A3",
"& c #6BB2A4",
"* c #71B3A6",
"= c #72B3A6",
"- c #73B3A6",
"; c #73B4A7",
": c #98C1B9",
"> c #99C1B9",
", c #AFCAC4",
"< c #B0CAC5",
"1 c #CED5D3",
"2 c #CED5D4",
"3 c #CFD5D4",
"4 c #C5DBD7",
"5 c #C8DCD9",
"6 c #C9DDDA",
"7 c #CCDFDC",
"8 c gray85",
"9 c #CFE0DD",
"0 c #D0E0DE",
"q c #D6E3E1",
"w c #D8E5E2",
"e c #D9E5E3",
"r c #DAE5E3",
"t c #DAE6E3",
"y c #DBE6E4",
"u c #DFE8E7",
"i c #EEEEEE",
"p c #F5F5F6",
"a c #F7F7F8",
"s c #F8F8F9",
/* pixels */
"iiiiiiiiiiiiiiiiiiiiiiii",
"888888888888888888888888",
"888888888888888888888888",
"888888888888888888888888",
"888888888888888888888888",
"888888881:=++-:188888888",
"8888888,@      @<8888888",
"888888,.        .<888888",
"888881@  &    %  #288888",
"88888:   awooqs   :88888",
"88888*   6syts9   -88888",
"88888@    7ss0    @88888",
"88888@   OyssuX   #88888",
"88888=   es55sr   -88888",
"88888:   p4  4p   >88888",
"888881@          $388888",
"888888<.        .<888888",
"8888888<#      $<8888888",
"888888882:;@@;>388888888",
"888888888888888888888888",
"888888888888888888888888",
"888888888888888888888888",
"888888888888888888888888",
"888888888888888888888888"
};
