/* XPM */
static char *close_pressed[] = {
/* columns rows colors chars-per-pixel */
"24 24 36 1 ",
"  c #6A5497",
". c #6B5597",
"X c #6B5598",
"o c #6E5999",
"O c #6F5A9A",
"+ c #705B9A",
"@ c #705B9B",
"# c #715C9B",
"$ c #7E6DA3",
"% c #7F6DA4",
"& c #806EA4",
"* c #806FA4",
"= c #A094B7",
"- c #A095B7",
"; c #A195B7",
": c #A095B8",
"> c #B4ADC3",
", c #B5AEC4",
"< c #B7ADCD",
"1 c #B9AFCE",
"2 c #BCB2D0",
"3 c #BCB3D1",
"4 c #BEB4D1",
"5 c #BFB6D3",
"6 c #C0B7D3",
"7 c #C3BBD5",
"8 c #C4BBD6",
"9 c #C6BED7",
"0 c #CFCDD3",
"q c #D0CED3",
"w c #D0CFD4",
"e c gray85",
"r c #EEEEEE",
"t c #FBFBFD",
"y c #FDFCFD",
"u c white",
/* pixels */
"rrrrrrrrrrrrrrrrrrrrrrrr",
"eeeeeeeeeeeeeeeeeeeeeeee",
"eeeeeeeeeeeeeeeeeeeeeeee",
"eeeeeeeeeeeeeeeeeeeeeeee",
"eeeeeeeeeeeeeeeeeeeeeeee",
"eeeeeeee0=%oo&:0eeeeeeee",
"eeeeeee>+      +,eeeeeee",
"eeeeee>.        .,eeeeee",
"eeeee0+          @qeeeee",
"eeeee=   t1  <y   -eeeee",
"eeeee$   5u32u8   &eeeee",
"eeeeeO   .6uu9X   +eeeee",
"eeeee+   .4uu7.   @eeeee",
"eeeee%   2u66u3   &eeeee",
"eeeee:   t3..3t   ;eeeee",
"eeeee0+          #weeeee",
"eeeeee,.        .,eeeeee",
"eeeeeee,@      #,eeeeeee",
"eeeeeeeeq-*OO*;weeeeeeee",
"eeeeeeeeeeeeeeeeeeeeeeee",
"eeeeeeeeeeeeeeeeeeeeeeee",
"eeeeeeeeeeeeeeeeeeeeeeee",
"eeeeeeeeeeeeeeeeeeeeeeee",
"eeeeeeeeeeeeeeeeeeeeeeee"
};
