/* XPM */
static char *close_active[] = {
/* columns rows colors chars-per-pixel */
"24 24 41 1 ",
"  c #8C6EC9",
". c #8C6FC9",
"X c #8E70C9",
"o c #8F72C9",
"O c #8F71CA",
"+ c #8F73CA",
"@ c #8E72CB",
"# c #9073CA",
"$ c #9074CA",
"% c #9175CA",
"& c #967CCD",
"* c #977DCD",
"= c #9A82CC",
"- c #9B82CC",
"; c #9B83CC",
": c #9C83CD",
"> c #B1A2D0",
", c #B1A2D1",
"< c #B2A3D1",
"1 c #C0B6D4",
"2 c #D2CFD7",
"3 c #D3D0D8",
"4 c #D3D1D8",
"5 c gray85",
"6 c #D3CBE4",
"7 c #D5CDE5",
"8 c #D5CEE5",
"9 c #D7D1E6",
"0 c #D9D3E7",
"q c #DAD4E8",
"w c #DEDAE9",
"e c #E0DCEA",
"r c #E1DCEA",
"t c #E1DDEA",
"y c #E2DDEA",
"u c #E2DEEB",
"i c #E4E1EC",
"p c #EEEEEE",
"a c #F5F5F7",
"s c #F7F7F8",
"d c #F8F8F9",
/* pixels */
"pppppppppppppppppppppppp",
"555555555555555555555555",
"555555555555555555555555",
"555555555555555555555555",
"555555555555555555555555",
"555555552,-oo;<255555555",
"55555551#      #15555555",
"5555551.        .1555555",
"555552#  *    &  $355555",
"55555,   seXXwd   >55555",
"55555=   8dytd0   ;55555",
"55555#    9ddq    #55555",
"55555#   @uddiO   $55555",
"55555-   rd77dt   ;55555",
"55555<   a6  6a   <55555",
"555552#          %455555",
"5555551.        .1555555",
"55555551$      %15555555",
"555555553>:++:<455555555",
"555555555555555555555555",
"555555555555555555555555",
"555555555555555555555555",
"555555555555555555555555",
"555555555555555555555555"
};
