/* XPM */
static char *close_prelight[] = {
/* columns rows colors chars-per-pixel */
"24 24 40 1 ",
"  c #9B84CB",
". c #9D86CB",
"X c #9D87CB",
"o c #9D86CD",
"O c #9E87CC",
"+ c #9E88CB",
"@ c #9E88CC",
"# c #9E89CC",
"$ c #9F89CC",
"% c #A38FCF",
"& c #A590CF",
"* c #A694CE",
"= c #A794CE",
"- c #A795CE",
"; c #A895CE",
": c #B9ADD1",
"> c #B9ADD2",
", c #B9AED2",
"< c #BAAED2",
"1 c #C5BDD4",
"2 c #C5BDD5",
"3 c #D3D1D8",
"4 c #D4D2D8",
"5 c gray85",
"6 c #D7D0E4",
"7 c #D9D3E6",
"8 c #DBD6E7",
"9 c #DCD7E8",
"0 c #DDD9E8",
"q c #E1DDE9",
"w c #E3DFEA",
"e c #E3E0EA",
"r c #E4E0EA",
"t c #E4E1EA",
"y c #E4E1EB",
"u c #E6E4EC",
"i c #EEEEEE",
"p c #F5F5F7",
"a c #F7F7F8",
"s c #F8F8F9",
/* pixels */
"iiiiiiiiiiiiiiiiiiiiiiii",
"555555555555555555555555",
"555555555555555555555555",
"555555555555555555555555",
"555555555555555555555555",
"555555553>=XX-<355555555",
"55555552@      @25555555",
"5555552          2555555",
"555553@  &    %  #455555",
"55555>   aw..qs   :55555",
"55555*   7stes9   -55555",
"55555@    8ss0    @55555",
"55555@   oyssuO   #55555",
"55555=   ws77sr   -55555",
"55555<   p6  6p   ,55555",
"555553@          $455555",
"5555552          1555555",
"55555552#      $15555555",
"555555554:;++;,455555555",
"555555555555555555555555",
"555555555555555555555555",
"555555555555555555555555",
"555555555555555555555555",
"555555555555555555555555"
};
