/* XPM */
static char *close_pressed[] = {
/* columns rows colors chars-per-pixel */
"24 24 33 1 ",
"  c #924D73",
". c #924E74",
"X c #934E74",
"o c #955377",
"O c #955378",
"+ c #965478",
"@ c #965579",
"# c #9F6786",
"$ c #A06886",
"% c #A06887",
"& c #A06987",
"* c #B491A5",
"= c #B591A5",
"- c #B592A5",
"; c #C2ABB7",
": c #C2ABB8",
"> c #C2ACB8",
", c #CAA9BB",
"< c #CCABBD",
"1 c #CEAFC0",
"2 c #CFB1C2",
"3 c #D0B3C3",
"4 c #D1B4C4",
"5 c #D3B8C7",
"6 c #D4B8C8",
"7 c #D6BBCA",
"8 c #D3CDD0",
"9 c #D3CED1",
"0 c gray85",
"q c #EEEEEE",
"w c #FCFBFC",
"e c #FDFCFD",
"r c white",
/* pixels */
"qqqqqqqqqqqqqqqqqqqqqqqq",
"000000000000000000000000",
"000000000000000000000000",
"000000000000000000000000",
"000000000000000000000000",
"000000008=$oo%-800000000",
"0000000;+      +:0000000",
"000000;.        .:000000",
"000008+          @800000",
"00000=   w<  ,e   *00000",
"00000#   3r11r6   %00000",
"00000O   .4rr7X   +00000",
"00000+   .2rr5.   @00000",
"00000$   1r44r1   %00000",
"00000-   w1..1w   -00000",
"000008+          @900000",
"000000:.        .>000000",
"0000000:@      @>0000000",
"000000008*&OO&-900000000",
"000000000000000000000000",
"000000000000000000000000",
"000000000000000000000000",
"000000000000000000000000",
"000000000000000000000000"
};
