/* XPM */
static char *close_prelight[] = {
/* columns rows colors chars-per-pixel */
"24 24 40 1 ",
"  c #C975A3",
". c #C976A3",
"X c #C977A5",
"o c #C979A5",
"O c #CA78A4",
"+ c #CA79A5",
"@ c #CB79A5",
"# c #CA7AA6",
"$ c #CA7BA6",
"% c #CD82AB",
"& c #CD83AB",
"* c #CC87AD",
"= c #CC88AD",
"- c #CC89AE",
"; c #CD89AE",
": c #D0A6BD",
"> c #D1A6BD",
", c #D1A6BE",
"< c #D4B8C7",
"1 c #D4B9C7",
"2 c #D4B9C8",
"3 c #D7D0D4",
"4 c #D8D1D4",
"5 c #D8D1D5",
"6 c gray85",
"7 c #E4CCD9",
"8 c #E4CFDC",
"9 c #E4D0DC",
"0 c #E5D3DE",
"q c #E6D4DF",
"w c #E7D6E0",
"e c #E9DBE2",
"r c #EADDE4",
"t c #EADEE5",
"y c #EBDFE5",
"u c #EBE2E8",
"i c #EEEEEE",
"p c #F6F5F6",
"a c #F7F7F8",
"s c #F8F8F9",
/* pixels */
"iiiiiiiiiiiiiiiiiiiiiiii",
"666666666666666666666666",
"666666666666666666666666",
"666666666666666666666666",
"666666666666666666666666",
"666666663>=oo-,366666666",
"6666666<#      #26666666",
"666666<.        .2666666",
"666663#  &    %  $466666",
"66666>   arXXes   :66666",
"66666*   9sttsq   -66666",
"66666#    0ssw    #66666",
"66666#   @yssuO   $66666",
"66666=   rs88st   -66666",
"66666,   p7  7p   >66666",
"666663#          $566666",
"6666662.        .1666666",
"66666662$      $16666666",
"666666664:;++;>566666666",
"666666666666666666666666",
"666666666666666666666666",
"666666666666666666666666",
"666666666666666666666666",
"666666666666666666666666"
};
