/* XPM */
static char *close_active[] = {
/* columns rows colors chars-per-pixel */
"24 24 42 1 ",
"  c #C76199",
". c #C76299",
"X c #C7639B",
"o c #C7669B",
"O c #C9659B",
"+ c #C8649C",
"@ c #C8669C",
"# c #C8679C",
"$ c #C8689D",
"% c #CB70A2",
"& c #CB71A3",
"* c #CA77A5",
"= c #CB78A5",
"- c #CB78A6",
"; c #CB79A6",
": c #CF9BB8",
"> c #D09BB8",
", c #D09CB8",
"< c #D09CB9",
"1 c #D3B1C4",
"2 c #D3B2C4",
"3 c #D4B2C4",
"4 c #D7CED3",
"5 c #D7CFD4",
"6 c #D8D0D4",
"7 c gray85",
"8 c #E3C7D6",
"9 c #E4CAD9",
"0 c #E4CBDA",
"q c #E5CEDC",
"w c #E6D0DD",
"e c #E6D2DE",
"r c #E8D8E0",
"t c #E9DAE2",
"y c #EADAE3",
"u c #EADBE3",
"i c #EADCE4",
"p c #EBE0E7",
"a c #EEEEEE",
"s c #F6F5F6",
"d c #F7F7F8",
"f c #F8F8F9",
/* pixels */
"aaaaaaaaaaaaaaaaaaaaaaaa",
"777777777777777777777777",
"777777777777777777777777",
"777777777777777777777777",
"777777777777777777777777",
"777777774>=oo-<477777777",
"77777771#      #37777777",
"7777771.        .3777777",
"777774#  &    %  $577777",
"77777>   dtXXrf   :77777",
"77777*   0fiufw   -77777",
"77777#    qffe    #77777",
"77777#   Oiffp+   $77777",
"77777=   yf99fu   -77777",
"77777<   s8  8s   ,77777",
"777774#          $677777",
"7777773.        .2777777",
"77777773$      $27777777",
"777777775:;@@;,677777777",
"777777777777777777777777",
"777777777777777777777777",
"777777777777777777777777",
"777777777777777777777777",
"777777777777777777777777"
};
