/* XPM */
static char *close_prelight[] = {
/* columns rows colors chars-per-pixel */
"24 24 30 1 ",
"  c #EC7AA0",
". c #EB7EA2",
"X c #EB7FA3",
"o c #E88CAB",
"O c #E98CAB",
"+ c #E88EAC",
"@ c #E88FAC",
"# c #E88FAD",
"$ c #E890AD",
"% c #E1B0C0",
"& c #E1B1C1",
"* c #EBB1C4",
"= c #ECB5C7",
"- c #ECB8CA",
"; c #ECBECE",
": c #DBCFD3",
"> c #D9D6D7",
", c #DAD7D8",
"< c gray85",
"1 c #ECC0CF",
"2 c #EBC0D0",
"3 c #ECC1D0",
"4 c #ECC2D1",
"5 c #ECC4D2",
"6 c #EDCDD7",
"7 c #EDCED8",
"8 c #EDCFD9",
"9 c #EDD0DA",
"0 c gray92",
"q c #F8F8F9",
/* pixels */
"000000000000000000000000",
"<<<<<<<<<<<<<<<<<<<<<<<<",
"<<<<<<<<<<<<<<<<<<<<<<<<",
"<<<<<<<<<<<<<<<<<<<<<<<<",
"<<<<<<<<<<<<<<<<<<<<<<<<",
"<<<<<<<<<<<<<<<<<<<<<<<<",
"<<<<<<<<>%@..@%><<<<<<<<",
"<<<<<<<:o      O:<<<<<<<",
"<<<<<<>o        O><<<<<<",
"<<<<<<%  34  33  &<<<<<<",
"<<<<<<+  =q76q-  #<<<<<<",
"<<<<<<.   2qq5   X<<<<<<",
"<<<<<<.   8qq9   X<<<<<<",
"<<<<<<+  1q;;q1  #<<<<<<",
"<<<<<<%  =*  *=  &<<<<<<",
"<<<<<<>O        O,<<<<<<",
"<<<<<<<:O      O:<<<<<<<",
"<<<<<<<<,&#..$&,<<<<<<<<",
"<<<<<<<<<<<<<<<<<<<<<<<<",
"<<<<<<<<<<<<<<<<<<<<<<<<",
"<<<<<<<<<<<<<<<<<<<<<<<<",
"<<<<<<<<<<<<<<<<<<<<<<<<",
"<<<<<<<<<<<<<<<<<<<<<<<<",
"<<<<<<<<<<<<<<<<<<<<<<<<"
};
