/* XPM */
static char *close_active[] = {
/* columns rows colors chars-per-pixel */
"24 24 32 1 ",
"  c #E54D80",
". c #E45383",
"X c #E45384",
"o c #E45484",
"O c #E36790",
"+ c #E36891",
"@ c #E36B93",
"# c #E36C94",
"$ c #E36D94",
"% c #DE9CB2",
"& c #DE9DB3",
"* c #DE9EB3",
"= c #E799B4",
"- c #E89FB8",
"; c #E8A0B8",
": c #E9A4BB",
"> c #E9ACC2",
", c #E9AEC3",
"< c #E9AFC3",
"1 c #E9AFC4",
"2 c #E9B1C5",
"3 c #EAB4C7",
"4 c #DACAD0",
"5 c #D9D5D7",
"6 c #D9D6D7",
"7 c gray85",
"8 c #EBC0CE",
"9 c #EBC1CF",
"0 c #EBC2D0",
"q c #ECC5D2",
"w c gray92",
"e c #F8F8F9",
/* pixels */
"wwwwwwwwwwwwwwwwwwwwwwww",
"777777777777777777777777",
"777777777777777777777777",
"777777777777777777777777",
"777777777777777777777777",
"777777777777777777777777",
"777777775%@..@&577777777",
"77777774O      +47777777",
"7777775O        +5777777",
"777777%  <2  <<  *777777",
"777777@  ;e98e:  #777777",
"777777X   1ee3   o777777",
"777777X   0eeq   o777777",
"777777@  ,e>>e,  #777777",
"777777&  -=  =-  *777777",
"7777775+        +6777777",
"77777774+      +47777777",
"777777776*#XX$*677777777",
"777777777777777777777777",
"777777777777777777777777",
"777777777777777777777777",
"777777777777777777777777",
"777777777777777777777777",
"777777777777777777777777"
};
