/* XPM */
static char *close_active[] = {
/* columns rows colors chars-per-pixel */
"24 24 32 1 ",
"  c #2F2F2F",
". c #2E302F",
"X c #2F302F",
"o c #2F3030",
"O c #2E3230",
"+ c #2B3A32",
"@ c #323232",
"# c #373737",
"$ c #1E5C3D",
"% c #1E5D3E",
"& c #1B643F",
"* c #1A6640",
"= c #176F43",
"- c #1A6841",
"; c #186E43",
": c #177043",
"> c #177144",
", c #167244",
"< c #147645",
"1 c #137B46",
"2 c #147846",
"3 c #157946",
"4 c #0F854A",
"5 c #108148",
"6 c #108249",
"7 c #118249",
"8 c #108349",
"9 c #10864A",
"0 c #0A934E",
"q c #0A944E",
"w c #0A944F",
"e c #089950",
/* pixels */
"########################",
"@@@@@@@@@@@@@@@@@@@@@@@@",
"                        ",
"                        ",
"                        ",
"                        ",
"        O%6ww6$O        ",
"       +9eeeeee4+       ",
"      O9eeeeeeee4O      ",
"      %ee>=ee>>ee$      ",
"      8ee3o*-X<ee5      ",
"      qeee:XX;eee0      ",
"      qeee*..&eee0      ",
"      8ee>.,,.>ee5      ",
"      $ee21ee12ee$      ",
"      O4eeeeeeee4O      ",
"       +4eeeeee4+       ",
"        O$5qq7$O        ",
"                        ",
"                        ",
"                        ",
"                        ",
"                        ",
"                        "
};
