/* XPM */
static char *close_prelight[] = {
/* columns rows colors chars-per-pixel */
"24 24 32 1 ",
"  c #2F2F2F",
". c #2F3030",
"X c #303130",
"o c #303331",
"O c #303332",
"+ c #323232",
"@ c #373737",
"# c #323F38",
"$ c #396F54",
"% c #397054",
"& c #3A7155",
"* c #3B7C5B",
"= c #3B7E5C",
"- c #3B7F5C",
"; c #3C805D",
": c #3D8A63",
"> c #3D8B63",
", c #3E8D64",
"< c #3E8D65",
"1 c #3E8E66",
"2 c #3E8F66",
"3 c #3F9569",
"4 c #3F986B",
"5 c #40986B",
"6 c #409C6D",
"7 c #41A573",
"8 c #42A673",
"9 c #42A774",
"0 c #43AB76",
"q c #45BF81",
"w c #46C082",
"e c #47C786",
/* pixels */
"@@@@@@@@@@@@@@@@@@@@@@@@",
"++++++++++++++++++++++++",
"                        ",
"                        ",
"                        ",
"                        ",
"        O&8ww8%O        ",
"       #0eeeeee0#       ",
"      O0eeeeeeee0O      ",
"      &ee<>ee<<ee$      ",
"      9ee5X-;.3ee7      ",
"      weee,..:eeeq      ",
"      weee=..*eeeq      ",
"      9ee1.22.1ee7      ",
"      %ee46ee64ee$      ",
"      O0eeeeeeee0o      ",
"       #0eeeeee0#       ",
"        o$7ww8$o        ",
"                        ",
"                        ",
"                        ",
"                        ",
"                        ",
"                        "
};
