/* XPM */
static char *close_active[] = {
/* columns rows colors chars-per-pixel */
"24 24 39 1 ",
"  c #2F2F2F",
". c gray19",
"X c #323030",
"o c gray20",
"O c #393232",
"+ c #3A3232",
"@ c #3A3333",
"# c gray22",
"$ c #5A3D3C",
"% c #5B3D3C",
"& c #5B3E3D",
"* c #603F3D",
"= c #603F3E",
"- c #613F3E",
"; c #62403E",
": c #62403F",
"> c #63403F",
", c #65413F",
"< c #6B4341",
"1 c #6C4341",
"2 c #6E4442",
"3 c #704443",
"4 c #714443",
"5 c #724543",
"6 c #734544",
"7 c #744544",
"8 c #744644",
"9 c #99514F",
"0 c #9A524F",
"q c #9A5250",
"w c #9B5250",
"e c #AC5755",
"r c #AB5855",
"t c #AC5855",
"y c #AD5855",
"u c #B25956",
"i c #B15A57",
"p c #B25A57",
"a c #B35A57",
/* pixels */
"########################",
"oooooooooooooooooooooooo",
"                        ",
"                        ",
"                        ",
"        @8qyy06@        ",
"       %eaaaaaae&       ",
"      %paaaaaaaap&      ",
"     @eaaraaaataat+     ",
"     8aaaX>uu,.aaa5     ",
"     waaa3 =- 1aaa0     ",
"     eaaaa2  <aaaae     ",
"     eaaap*  %iaaat     ",
"     qaaa: 44 ;aaa0     ",
"     6aaa@7aa7@aaa5     ",
"     @eaaaaaaaaaarO     ",
"      &paaaaaaaap$      ",
"       &taaaaaar$       ",
"        +59yy95O        ",
"                        ",
"                        ",
"                        ",
"                        ",
"                        "
};
