/* XPM */
static char *close_prelight[] = {
/* columns rows colors chars-per-pixel */
"24 24 36 1 ",
"  c #2F2F2F",
". c #313030",
"X c #323030",
"o c gray20",
"O c #3B3434",
"+ c #3C3434",
"@ c #3D3535",
"# c gray22",
"$ c #634444",
"% c #654544",
"& c #654545",
"* c #6B4746",
"= c #6C4847",
"- c #6D4848",
"; c #6E4948",
": c #6F4949",
"> c #714A49",
", c #784D4C",
"< c #7A4D4C",
"1 c #7C4F4E",
"2 c #7F504F",
"3 c #80504F",
"4 c #81504F",
"5 c #825150",
"6 c #835150",
"7 c #845150",
"8 c #B16462",
"9 c #B26463",
"0 c #B36563",
"q c #B36564",
"w c #C86D6B",
"e c #C96E6C",
"r c #CA6E6C",
"t c #CF706E",
"y c #D0716F",
"u c #D1716F",
/* pixels */
"########################",
"oooooooooooooooooooooooo",
"                        ",
"                        ",
"                        ",
"        @60rr95@        ",
"       %wuuuuuuw&       ",
"      %yuuuuuuuuy&      ",
"     @wuuwuuuueuue+     ",
"     6uuuX:tt>.uuu5     ",
"     quuu2 == <uuu9     ",
"     wuuuu1  ,uuuuw     ",
"     wuuuy*  %tuuue     ",
"     0uuu; 33 -uuu9     ",
"     5uuu@7uu7@uuu4     ",
"     @wuuuuuuuuuuwO     ",
"      &yuuuuuuuuy$      ",
"       &euuuuuuw$       ",
"        +58ee84O        ",
"                        ",
"                        ",
"                        ",
"                        ",
"                        "
};
