/* XPM */
static char *close_pressed[] = {
/* columns rows colors chars-per-pixel */
"24 24 33 1 ",
"  c #2F2F2F",
". c #312F2F",
"X c gray19",
"o c gray20",
"O c #373131",
"+ c #383131",
"@ c gray22",
"# c #523837",
"$ c #533837",
"% c #563937",
"& c #573938",
"* c #583938",
"= c #593A39",
"- c #5B3A39",
"; c #5F3B3A",
": c #603B3A",
"> c #623C3B",
", c #643C3B",
"< c #653C3B",
"1 c #643D3B",
"2 c #663D3B",
"3 c #673D3B",
"4 c #673D3C",
"5 c #854442",
"6 c #854542",
"7 c #864543",
"8 c #874543",
"9 c #944845",
"0 c #944946",
"q c #954946",
"w c #994946",
"e c #994A47",
"r c #9A4A47",
/* pixels */
"@@@@@@@@@@@@@@@@@@@@@@@@",
"oooooooooooooooooooooooo",
"                        ",
"                        ",
"                        ",
"        +47qq62+        ",
"       #9rrrrrr9$       ",
"      #errrrrrrre$      ",
"     +9rr0rrrrqrrq+     ",
"     4rrr.=ww-Xrrr2     ",
"     8rrr1 &* :rrr6     ",
"     9rrrr>  ;rrrr9     ",
"     9rrre%  $errrq     ",
"     7rrr= ,, *rrr6     ",
"     2rrr+3rr3+rrr<     ",
"     +9rrrrrrrrrr0O     ",
"      $errrrrrrre#      ",
"       $qrrrrrr0#       ",
"        +25qq5<O        ",
"                        ",
"                        ",
"                        ",
"                        ",
"                        "
};
