/* XPM */
static char *close_prelight[] = {
/* columns rows colors chars-per-pixel */
"24 24 41 1 ",
"  c #2F2F2F",
". c #313030",
"X c #323130",
"o c gray20",
"O c #3C3835",
"+ c #3D3935",
"@ c #3E3A36",
"# c gray22",
"$ c #675747",
"% c #685848",
"& c #695848",
"* c #6F5C4A",
"= c #705D4B",
"- c #715E4B",
"; c #725E4C",
": c #725F4C",
"> c #73604D",
", c #76614E",
"< c #7D6751",
"1 c #7F6851",
"2 c #816A53",
"3 c #856C54",
"4 c #866D55",
"5 c #876E55",
"6 c #886E56",
"7 c #896F56",
"8 c #8A6F56",
"9 c #BA926B",
"0 c #BB926C",
"q c #BC936C",
"w c #BC946D",
"e c #D2A376",
"r c #D3A376",
"t c #D3A476",
"y c #D4A476",
"u c #D5A577",
"i c #DAA879",
"p c #DAA979",
"a c #DAA97A",
"s c #DBA97A",
"d c #DCAA7A",
/* pixels */
"########################",
"oooooooooooooooooooooooo",
"                        ",
"                        ",
"                        ",
"        @7quu06@        ",
"       %rddddddr%       ",
"      %sdddddddds%      ",
"     @rddeddddtddt+     ",
"     7dddX>pp,.ddd5     ",
"     wddd3 =- 1ddd0     ",
"     rdddd2  <ddddr     ",
"     rddda*  &idddt     ",
"     qddd: 33 ;ddd0     ",
"     6ddd@8dd8@ddd4     ",
"     @rddddddddddeO     ",
"      %sdddddddds$      ",
"       %tdddddde$       ",
"        +59yy94O        ",
"                        ",
"                        ",
"                        ",
"                        ",
"                        "
};
