/* XPM */
static char *close_pressed[] = {
/* columns rows colors chars-per-pixel */
"24 24 37 1 ",
"  c #2F2F2F",
". c #31302F",
"X c gray19",
"o c gray20",
"O c #383431",
"+ c #393531",
"@ c #3A3531",
"# c gray22",
"$ c #564637",
"% c #574737",
"& c #584737",
"* c #5C4937",
"= c #5D4A38",
"- c #5E4B38",
"; c #5F4B39",
": c #5F4C39",
"> c #614D39",
", c #66503A",
"< c #67503A",
"1 c #69513B",
"2 c #6C533B",
"3 c #6D543B",
"4 c #6E543B",
"5 c #6F553B",
"6 c #6E553C",
"7 c #916942",
"8 c #926942",
"9 c #926A43",
"0 c #936A43",
"q c #A27345",
"w c #A27346",
"e c #A37346",
"r c #A47446",
"t c #A77647",
"y c #A87646",
"u c #A87747",
"i c #A97747",
/* pixels */
"########################",
"oooooooooooooooooooooooo",
"                        ",
"                        ",
"                        ",
"        @69rr84@        ",
"       %qiiiiiiq&       ",
"      %uiiiiiiiiu&      ",
"     @qiiwiiiieiie+     ",
"     6iii.:yy>Xiii3     ",
"     0iii2 == <iii8     ",
"     qiiii1  ,iiiiq     ",
"     qiiiu*  &tiiie     ",
"     9iii; 22 -iii8     ",
"     4iii@5ii5@iii2     ",
"     @qiiiiiiiiiiwO     ",
"      &uiiiiiiiiu$      ",
"       &eiiiiiiw$       ",
"        +37ee72O        ",
"                        ",
"                        ",
"                        ",
"                        ",
"                        "
};
