/* XPM */
static char *close_active[] = {
/* columns rows colors chars-per-pixel */
"24 24 42 1 ",
"  c #C15B58",
". c #C15C59",
"X c #C15D5A",
"o c #C35F5C",
"O c #C2605D",
"+ c #C2615E",
"@ c #C2615F",
"# c #C2625F",
"$ c #C36360",
"% c #C56B68",
"& c #C76C69",
"* c #C57270",
"= c #C67370",
"- c #C67471",
"; c #C67472",
": c #CC9897",
"> c #CD9897",
", c #CD9997",
"< c #CD9998",
"1 c #D1AFAE",
"2 c #D1B0AF",
"3 c #D2B0AF",
"4 c #D7CECE",
"5 c #D7CFCF",
"6 c gray85",
"7 c #E1C5C4",
"8 c #E2C9C9",
"9 c #E2CACA",
"0 c #E4CCCD",
"q c #E4CFCF",
"w c #E5D0D1",
"e c #E7D6D6",
"r c #E9D9D8",
"t c #E9D9D9",
"y c #E9DADA",
"u c #E9DBDA",
"i c #E9DBDB",
"p c #EADFE0",
"a c #EEEEEE",
"s c #F6F5F6",
"d c #F7F7F8",
"f c #F8F8F9",
/* pixels */
"aaaaaaaaaaaaaaaaaaaaaaaa",
"666666666666666666666666",
"666666666666666666666666",
"666666666666666666666666",
"666666666666666666666666",
"666666664>=OO-,466666666",
"66666661@      @36666666",
"6666661.        .3666666",
"666664@  &    %  #466666",
"66666>   drXXef   :66666",
"66666*   9fuyfq   -66666",
"66666@    0ffw    @66666",
"66666@   oiffpO   #66666",
"66666=   tf88fy   -66666",
"66666,   s7  7s   <66666",
"666664@          $566666",
"6666663.        .2666666",
"66666663#      $26666666",
"666666664:;++;<566666666",
"666666666666666666666666",
"666666666666666666666666",
"666666666666666666666666",
"666666666666666666666666",
"666666666666666666666666"
};
