/* XPM */
static char *close_prelight[] = {
/* columns rows colors chars-per-pixel */
"24 24 38 1 ",
"  c #D1716F",
". c #D17270",
"X c #D17371",
"o c #D17573",
"O c #D27472",
"+ c #D37573",
"@ c #D17674",
"# c #D27775",
"$ c #D47E7D",
"% c #D57F7D",
"& c #D28483",
"* c #D38583",
"= c #D38584",
"- c #D38684",
"; c #D5A3A2",
": c #D5A4A3",
"> c #D7B7B6",
", c #D6B7B7",
"< c #D7B7B7",
"1 c #D8D0D0",
"2 c #D8D1D1",
"3 c gray85",
"4 c #E6CBCB",
"5 c #E6CECF",
"6 c #E6CFD0",
"7 c #E7D2D2",
"8 c #E8D3D4",
"9 c #E8D5D5",
"0 c #EADADA",
"q c #EBDCDC",
"w c #EBDDDC",
"e c #EBDDDD",
"r c #ECDEDE",
"t c #ECE1E2",
"y c #EEEEEE",
"u c #F6F5F6",
"i c #F7F7F8",
"p c #F8F8F9",
/* pixels */
"yyyyyyyyyyyyyyyyyyyyyyyy",
"333333333333333333333333",
"333333333333333333333333",
"333333333333333333333333",
"333333333333333333333333",
"333333331;*oo=:133333333",
"3333333>@      @<3333333",
"333333>.        .<333333",
"333331@  %    $  #133333",
"33333;   iqXX0p   :33333",
"33333&   6prep8   =33333",
"33333@    7pp9    @33333",
"33333@   +rpptO   #33333",
"33333*   wp55pe   =33333",
"33333:   u4  4u   :33333",
"333331@          #233333",
"333333<.        .,333333",
"3333333<#      #,3333333",
"333333331:-@@-:233333333",
"333333333333333333333333",
"333333333333333333333333",
"333333333333333333333333",
"333333333333333333333333",
"333333333333333333333333"
};
