/* XPM */
static char *close_pressed[] = {
/* columns rows colors chars-per-pixel */
"24 24 36 1 ",
"  c #9A4A47",
". c #9A4B48",
"X c #9B4B48",
"o c #9C504D",
"O c #9D514E",
"+ c #9E524F",
"@ c #9E5350",
"# c #A66462",
"$ c #A66563",
"% c #A66663",
"& c #A76664",
"* c #B98F8E",
"= c #B9908E",
"- c #B9908F",
"; c #CEA8A6",
": c #C4AAA9",
"> c #C5AAA9",
", c #C5ABAA",
"< c #CFAAA8",
"1 c #D1ADAC",
"2 c #D2AEAD",
"3 c #D3AFAE",
"4 c #D4B2B0",
"5 c #D4B2B1",
"6 c #D5B3B2",
"7 c #D7B7B5",
"8 c #D7B7B6",
"9 c #D9BAB9",
"0 c #D3CCCC",
"q c #D4CDCD",
"w c #D4CECE",
"e c gray85",
"r c #EEEEEE",
"t c #FDFBFB",
"y c #FDFCFC",
"u c white",
/* pixels */
"rrrrrrrrrrrrrrrrrrrrrrrr",
"eeeeeeeeeeeeeeeeeeeeeeee",
"eeeeeeeeeeeeeeeeeeeeeeee",
"eeeeeeeeeeeeeeeeeeeeeeee",
"eeeeeeeeeeeeeeeeeeeeeeee",
"eeeeeeee0*$oo%=0eeeeeeee",
"eeeeeee:O      O>eeeeeee",
"eeeeee:.        .>eeeeee",
"eeeee0O          +qeeeee",
"eeeee*   t<  ;y   =eeeee",
"eeeee#   4u21u8   %eeeee",
"eeeeeO   .6uu9X   Oeeeee",
"eeeeeO   .3uu7.   +eeeee",
"eeeee$   1u55u2   %eeeee",
"eeeee=   t2..2t   -eeeee",
"eeeee0O          @weeeee",
"eeeeee>.        .,eeeeee",
"eeeeeee>+      @,eeeeeee",
"eeeeeeeeq=&OO&-weeeeeeee",
"eeeeeeeeeeeeeeeeeeeeeeee",
"eeeeeeeeeeeeeeeeeeeeeeee",
"eeeeeeeeeeeeeeeeeeeeeeee",
"eeeeeeeeeeeeeeeeeeeeeeee",
"eeeeeeeeeeeeeeeeeeeeeeee"
};
