/* XPM */
static char *close_pressed[] = {
/* columns rows colors chars-per-pixel */
"24 24 28 1 ",
"  c #727272",
". c gray45",
"X c #767676",
"o c #777777",
"O c gray47",
"+ c gray52",
"@ c #868686",
"# c gray53",
"$ c #A4A4A4",
"% c #A5A5A5",
"& c #B7B7B7",
"* c gray72",
"= c #BBBBBB",
"- c gray74",
"; c gray75",
": c #C0C0C0",
"> c #C1C1C1",
", c #C3C3C3",
"< c gray77",
"1 c gray78",
"2 c gray79",
"3 c #D0D0D0",
"4 c gray82",
"5 c gray85",
"6 c #EEEEEE",
"7 c gray99",
"8 c #FDFDFD",
"9 c white",
/* pixels */
"666666666666666666666666",
"555555555555555555555555",
"555555555555555555555555",
"555555555555555555555555",
"555555555555555555555555",
"555555553$@XX@%355555555",
"5555555&o      o*5555555",
"555555&.        .*555555",
"555553o          O355555",
"55555$   7-  =8   $55555",
"55555+   ,9:;91   @55555",
"55555o   .<992.   o55555",
"55555o   .>991.   O55555",
"55555@   ;9,,9:   @55555",
"55555%   7:..:7   %55555",
"555553o          O455555",
"555555*.        .*555555",
"5555555*O      O*5555555",
"555555553$#oo#%455555555",
"555555555555555555555555",
"555555555555555555555555",
"555555555555555555555555",
"555555555555555555555555",
"555555555555555555555555"
};
