/* XPM */
static char *close_active[] = {
/* columns rows colors chars-per-pixel */
"24 24 28 1 ",
"  c #9D9D9D",
". c #9F9F9F",
"X c #A0A0A0",
"o c gray63",
"O c #A5A5A5",
"+ c #A7A7A7",
"@ c gray66",
"# c #A9A9A9",
"$ c gray73",
"% c #BBBBBB",
"& c #C5C5C5",
"* c #C6C6C6",
"= c gray83",
"- c #D7D7D7",
"; c gray85",
": c #D9D9DA",
"> c #DADADB",
", c #DBDBDC",
"< c #DDDDDE",
"1 c #DEDEDF",
"2 c #E1E1E1",
"3 c gray89",
"4 c #E4E4E4",
"5 c #E6E6E7",
"6 c #EEEEEE",
"7 c #F5F5F6",
"8 c #F7F7F8",
"9 c #F8F8F9",
/* pixels */
"666666666666666666666666",
";;;;;;;;;;;;;;;;;;;;;;;;",
";;;;;;;;;;;;;;;;;;;;;;;;",
";;;;;;;;;;;;;;;;;;;;;;;;",
";;;;;;;;;;;;;;;;;;;;;;;;",
";;;;;;;;=$@..#%=;;;;;;;;",
";;;;;;;&X      X*;;;;;;;",
";;;;;;&          *;;;;;;",
";;;;;=X  +    O  X=;;;;;",
";;;;;$   83..29   $;;;;;",
";;;;;@   >9449<   #;;;;;",
";;;;;X    ,991    X;;;;;",
";;;;;X   .4995X   X;;;;;",
";;;;;@   39::94   #;;;;;",
";;;;;%   7-  -7   $;;;;;",
";;;;;=X          o=;;;;;",
";;;;;;*          &;;;;;;",
";;;;;;;*X      o&;;;;;;;",
";;;;;;;;=$#XX#$=;;;;;;;;",
";;;;;;;;;;;;;;;;;;;;;;;;",
";;;;;;;;;;;;;;;;;;;;;;;;",
";;;;;;;;;;;;;;;;;;;;;;;;",
";;;;;;;;;;;;;;;;;;;;;;;;",
";;;;;;;;;;;;;;;;;;;;;;;;"
};
