/* XPM */
static char *close_prelight[] = {
/* columns rows colors chars-per-pixel */
"24 24 26 1 ",
"  c gray64",
". c #A4A4A4",
"X c #A5A5A5",
"o c gray65",
"O c gray67",
"+ c gray68",
"@ c #AEAEAE",
"# c gray74",
"$ c gray",
"% c gray78",
"& c #C8C8C8",
"* c gray83",
"= c #D5D5D5",
"- c gray85",
"; c #DBDBDC",
": c #DDDDDE",
"> c #DEDEDF",
", c #DFDFE0",
"< c #E2E2E2",
"1 c #E4E4E4",
"2 c gray90",
"3 c #E7E7E8",
"4 c #EEEEEE",
"5 c #F5F5F6",
"6 c #F7F7F8",
"7 c #F8F8F9",
/* pixels */
"444444444444444444444444",
"------------------------",
"------------------------",
"------------------------",
"------------------------",
"--------*#+XX@$*--------",
"-------%o      o&-------",
"------%          &------",
"-----*o  O    O  o*-----",
"-----#   61XX<7   #-----",
"-----+   ;7227>   @-----",
"-----o    :77,    o-----",
"-----o   X2773.   o-----",
"-----+   17;;72   @-----",
"-----$   5-  -5   #-----",
"-----*o          o=-----",
"------&          %------",
"-------&o      o%-------",
"--------*#@XX@#=--------",
"------------------------",
"------------------------",
"------------------------",
"------------------------",
"------------------------"
};
