/* XPM */
static char *close_pressed[] = {
/* columns rows colors chars-per-pixel */
"24 24 19 1 ",
"  c black",
". c #020202",
"X c #090909",
"o c gray4",
"O c #0B0B0B",
"+ c gray5",
"@ c #0E0E0E",
"# c gray6",
"$ c #111111",
"% c gray7",
"& c #131313",
"* c #161616",
"= c gray9",
"- c #1B1B1B",
"; c #2A2A2A",
": c gray18",
"> c #2F2F2F",
", c #323232",
"< c #373737",
/* pixels */
"<<<<<<<<<<<<<<<<<<<<<<<<",
",,,,,,,,,,,,,,,,,,,,,,,,",
">>>>>>>>>>>>>>>>>>>>>>>>",
">>>>>>>>>>>>>>>>>>>>>>>>",
">>>>>>>>>>>>>>>>>>>>>>>>",
">>>>>>>>>>>>>>>>>>>>>>>>",
">>>>>>>>:-o..o-:>>>>>>>>",
">>>>>>>;X      X;>>>>>>>",
">>>>>>:X        X:>>>>>>",
">>>>>>-  %%  %%  ->>>>>>",
">>>>>>o  #>**>#  o>>>>>>",
">>>>>>.   %>>&   .>>>>>>",
">>>>>>.   *::=   .>>>>>>",
">>>>>>o  %:$$:%  o>>>>>>",
">>>>>>-  @+  +@  ->>>>>>",
">>>>>>:X        X:>>>>>>",
">>>>>>>;X      X;>>>>>>>",
">>>>>>>>:-o..O-:>>>>>>>>",
">>>>>>>>>>>>>>>>>>>>>>>>",
">>>>>>>>>>>>>>>>>>>>>>>>",
">>>>>>>>>>>>>>>>>>>>>>>>",
">>>>>>>>>>>>>>>>>>>>>>>>",
">>>>>>>>>>>>>>>>>>>>>>>>",
">>>>>>>>>>>>>>>>>>>>>>>>"
};
