/* XPM */
static char *close_prelight[] = {
/* columns rows colors chars-per-pixel */
"24 24 35 1 ",
"  c #2F2F2F",
". c #30302F",
"X c #31302F",
"o c #313030",
"O c #323232",
"+ c #343130",
"@ c #353231",
"# c #373737",
"$ c #443934",
"% c #845842",
"& c #855842",
"* c #865943",
"= c #945F46",
"- c #976146",
"; c #986146",
": c #9A6247",
"> c #A6684A",
", c #A8694A",
"< c #AA6A4B",
"1 c #AB6B4B",
"2 c #AC6B4B",
"3 c #AD6B4B",
"4 c #B66F4D",
"5 c #B9714E",
"6 c #B9724E",
"7 c #BE744F",
"8 c #CB7A52",
"9 c #CC7A52",
"0 c #CD7B53",
"q c #D27D54",
"w c #D27E54",
"e c #EC8A59",
"r c #ED8A5A",
"t c #EE8B5A",
"y c #F78F5C",
/* pixels */
"########################",
"OOOOOOOOOOOOOOOOOOOOOOOO",
"                        ",
"                        ",
"                        ",
"                        ",
"        @*9tt9&@        ",
"       $wyyyyyyq$       ",
"      @wyyyyyyyyq@      ",
"      *yy1,yy11yy%      ",
"      0yy6o;:.4yy8      ",
"      ryyy<..>yyye      ",
"      ryyy-XX=yyye      ",
"      0yy2X33X2yy8      ",
"      &yy57yy75yy%      ",
"      @qyyyyyyyyq+      ",
"       $qyyyyyyq$       ",
"        +%8rr8%+        ",
"                        ",
"                        ",
"                        ",
"                        ",
"                        ",
"                        "
};
