/* XPM */
static char *close_prelight[] = {
/* columns rows colors chars-per-pixel */
"24 24 32 1 ",
"  c #A0867A",
". c #A2897E",
"X c #A28A7E",
"o c #A38A7F",
"O c #AB958C",
"+ c #AB968C",
"@ c #AC988E",
"# c #AC988F",
"$ c #AD998F",
"% c #AD9990",
"& c #C0B5B0",
"* c #C1B6B1",
"= c #C4B7B1",
"- c #C7BAB5",
"; c #C7BBB5",
": c #CABEB8",
"> c #CDC3BF",
", c #CEC5C1",
"< c #CFC5C1",
"1 c #CFC5C2",
"2 c #D0C6C3",
"3 c #D1C8C5",
"4 c #D3D0CF",
"5 c #D7D0CD",
"6 c #D8D1CE",
"7 c #D9D2CF",
"8 c #D7D7D6",
"9 c #DAD4D0",
"0 c #D8D7D7",
"q c gray85",
"w c gray92",
"e c #F8F8F9",
/* pixels */
"wwwwwwwwwwwwwwwwwwwwwwww",
"qqqqqqqqqqqqqqqqqqqqqqqq",
"qqqqqqqqqqqqqqqqqqqqqqqq",
"qqqqqqqqqqqqqqqqqqqqqqqq",
"qqqqqqqqqqqqqqqqqqqqqqqq",
"qqqqqqqqqqqqqqqqqqqqqqqq",
"qqqqqqqq8&#..#&8qqqqqqqq",
"qqqqqqq4O      +4qqqqqqq",
"qqqqqq8O        +8qqqqqq",
"qqqqqq&  12  11  *qqqqqq",
"qqqqqq@  ;e65e:  $qqqqqq",
"qqqqqqX   <ee3   oqqqqqq",
"qqqqqqX   7ee9   oqqqqqq",
"qqqqqq@  ,e>>e,  $qqqqqq",
"qqqqqq&  -=  =-  *qqqqqq",
"qqqqqq8+        +0qqqqqq",
"qqqqqqq4+      +4qqqqqqq",
"qqqqqqqq0*$XX%*0qqqqqqqq",
"qqqqqqqqqqqqqqqqqqqqqqqq",
"qqqqqqqqqqqqqqqqqqqqqqqq",
"qqqqqqqqqqqqqqqqqqqqqqqq",
"qqqqqqqqqqqqqqqqqqqqqqqq",
"qqqqqqqqqqqqqqqqqqqqqqqq",
"qqqqqqqqqqqqqqqqqqqqqqqq"
};
