/* XPM */
static char *close_prelight[] = {
/* columns rows colors chars-per-pixel */
"24 24 34 1 ",
"  c #2F2F2F",
". c #2F3030",
"X c #2F3031",
"o c #303031",
"O c #313133",
"+ c #323232",
"@ c #313234",
"# c #373737",
"$ c #363841",
"% c #4D5479",
"& c #4D557A",
"* c #525B87",
"= c #535C89",
"- c #535C8A",
"; c #545D8C",
": c #596397",
"> c #596398",
", c #5A649A",
"< c #5A659B",
"1 c #5B669C",
"2 c #5B669D",
"3 c #5E69A4",
"4 c #5F6BA7",
"5 c #606BA8",
"6 c #616DAC",
"7 c #6573B6",
"8 c #6673B7",
"9 c #6674B8",
"0 c #6876BC",
"q c #6876BD",
"w c #7181D4",
"e c #7182D5",
"r c #7282D5",
"t c #7586DD",
/* pixels */
"########################",
"++++++++++++++++++++++++",
"                        ",
"                        ",
"                        ",
"                        ",
"        @&8rr8%@        ",
"       $qtttttt0$       ",
"      @qtttttttt0@      ",
"      &tt<>tt<<tt%      ",
"      9tt5o-;.3tt7      ",
"      ettt,..:tttw      ",
"      ettt=XX*tttw      ",
"      9tt1X22X1tt7      ",
"      %tt46tt64tt%      ",
"      @0tttttttt0O      ",
"       $0tttttt0$       ",
"        O%7ee8%O        ",
"                        ",
"                        ",
"                        ",
"                        ",
"                        ",
"                        "
};
