/* XPM */
static char *close_active[] = {
/* columns rows colors chars-per-pixel */
"24 24 32 1 ",
"  c #2F2F2F",
". c #2F2F30",
"X c #2F3030",
"o c #2F3032",
"O c #303033",
"+ c #323232",
"@ c #373737",
"# c #30323D",
"$ c #343D66",
"% c #353D67",
"& c #353E68",
"* c #353F71",
"= c #354073",
"- c #364074",
"; c #364175",
": c #37437D",
"> c #36437E",
", c #374380",
"< c #374480",
"1 c #374481",
"2 c #374587",
"3 c #38468A",
"4 c #38468D",
"5 c #394895",
"6 c #3A4995",
"7 c #394996",
"8 c #3A4A99",
"9 c #3A4A9A",
"0 c #3B4EAB",
"q c #3B4EAC",
"w c #3B4FAC",
"e c #3C50B2",
/* pixels */
"@@@@@@@@@@@@@@@@@@@@@@@@",
"++++++++++++++++++++++++",
"                        ",
"                        ",
"                        ",
"                        ",
"        O&7ww7%O        ",
"       #9eeeeee8#       ",
"      O9eeeeeeee8O      ",
"      &ee<>ee<<ee$      ",
"      7ee3X-;.2ee5      ",
"      qeee,..:eee0      ",
"      qeee=..*eee0      ",
"      7ee1.11.1ee5      ",
"      %ee34ee43ee$      ",
"      O8eeeeeeee8o      ",
"       #8eeeeee8#       ",
"        o$5qq6$o        ",
"                        ",
"                        ",
"                        ",
"                        ",
"                        ",
"                        "
};
