/* XPM */
static char *close_pressed[] = {
/* columns rows colors chars-per-pixel */
"24 24 38 1 ",
"  c #2F2F2F",
". c #2F3030",
"X c #2E3031",
"o c #2B3438",
"O c #2B3538",
"+ c #2B3539",
"@ c gray20",
"# c gray22",
"$ c #1F4755",
"% c #1F4855",
"& c #1D4A59",
"* c #1D4B5A",
"= c #1D4B5B",
"- c #1D4C5C",
"; c #1C4D5E",
": c #204754",
"> c #204855",
", c #195163",
"< c #1A5163",
"1 c #195265",
"2 c #175468",
"3 c #175569",
"4 c #17556A",
"5 c #17566A",
"6 c #16566B",
"7 c #185468",
"8 c #096A8A",
"9 c #096B8B",
"0 c #096B8C",
"q c #096C8C",
"w c #02759B",
"e c #03759B",
"r c #02769C",
"t c #01789F",
"y c #0078A0",
"u c #0079A0",
"i c #0179A0",
"p c #0079A1",
/* pixels */
"########################",
"@@@@@@@@@@@@@@@@@@@@@@@@",
"                        ",
"                        ",
"                        ",
"        +50rr94+        ",
"       $wppppppw>       ",
"      $uppppppppu>      ",
"     +wppeppppeppeO     ",
"     5pppX-yy;.ppp3     ",
"     qppp7 ** ,ppp9     ",
"     wpppp1  <ppppw     ",
"     wpppi&  %tpppe     ",
"     0ppp- 22 =ppp9     ",
"     4ppp+6pp6+ppp2     ",
"     +wppppppppppeo     ",
"      >uppppppppu:      ",
"       >eppppppe:       ",
"        O38ww82o        ",
"                        ",
"                        ",
"                        ",
"                        ",
"                        "
};
