/* XPM */
static char *close_active[] = {
/* columns rows colors chars-per-pixel */
"24 24 33 1 ",
"  c #2F2F2F",
". c #302F2F",
"X c #313030",
"o c #333031",
"O c #323232",
"+ c #373737",
"@ c #3F3136",
"# c #6E3749",
"$ c #6E374A",
"% c #6F374A",
"& c #7A384E",
"* c #7C384F",
"= c #7C394F",
"- c #7E3950",
"; c #873A54",
": c #893A54",
"> c #8A3B55",
", c #8B3B56",
"< c #8C3B56",
"1 c #933C59",
"2 c #953C5A",
"3 c #963D5A",
"4 c #993C5B",
"5 c #A23E5F",
"6 c #A33E5F",
"7 c #A23E60",
"8 c #A43E60",
"9 c #A73F61",
"0 c #A83F62",
"q c #BB4169",
"w c #BC416A",
"e c #BD416A",
"r c #C3426D",
/* pixels */
"++++++++++++++++++++++++",
"OOOOOOOOOOOOOOOOOOOOOOOO",
"                        ",
"                        ",
"                        ",
"                        ",
"        o%6ee6$o        ",
"       @0rrrrrr9@       ",
"      o0rrrrrrrr9o      ",
"      %rr,:rr,,rr#      ",
"      8rr3X=-.1rr5      ",
"      wrrr>..;rrrq      ",
"      wrrr*..&rrrq      ",
"      8rr<.<<.<rr5      ",
"      $rr24rr42rr#      ",
"      o9rrrrrrrr9o      ",
"       @9rrrrrr9@       ",
"        o#5ww7#o        ",
"                        ",
"                        ",
"                        ",
"                        ",
"                        ",
"                        "
};
