/* XPM */
static char *close_prelight[] = {
/* columns rows colors chars-per-pixel */
"24 24 29 1 ",
"  c #F78F5C",
". c #F59261",
"X c #F59262",
"o c #F59362",
"O c #F19D73",
"+ c #F29D74",
"@ c #F19F77",
"# c #F1A078",
"$ c #E6B9A3",
"% c #E6BAA4",
"& c #F1BCA1",
"* c #F1BFA6",
"= c #F1C0A7",
"- c #F2C2AB",
"; c #F0C6B3",
": c #F0C8B5",
"> c #F0C8B6",
", c #F0C9B6",
"< c #F0CAB8",
"1 c #F0CBBA",
"2 c #DCD1CC",
"3 c #DAD7D6",
"4 c gray85",
"5 c #F0D2C4",
"6 c #F0D4C5",
"7 c #F1D4C6",
"8 c #F0D6C9",
"9 c gray92",
"0 c #F8F8F9",
/* pixels */
"999999999999999999999999",
"444444444444444444444444",
"444444444444444444444444",
"444444444444444444444444",
"444444444444444444444444",
"444444444444444444444444",
"444444443$@..@$344444444",
"44444442O      +24444444",
"4444443O        +3444444",
"444444$  ,<  ,,  %444444",
"444444@  =0650-  #444444",
"444444X   >001   o444444",
"444444X   7008   o444444",
"444444@  :0;;0:  #444444",
"444444$  *&  &*  %444444",
"4444443+        +3444444",
"44444442+      +24444444",
"444444443%#XX#%344444444",
"444444444444444444444444",
"444444444444444444444444",
"444444444444444444444444",
"444444444444444444444444",
"444444444444444444444444",
"444444444444444444444444"
};
