/* XPM */
static char *close_prelight[] = {
/* columns rows colors chars-per-pixel */
"24 24 31 1 ",
"  c #2F2F2F",
". c #30302F",
"X c gray19",
"o c #323131",
"O c #323231",
"+ c #323232",
"@ c #373737",
"# c #3B3837",
"$ c #5F544F",
"% c #605550",
"& c #685B55",
"* c #695C56",
"= c #6A5C56",
"- c #6B5D57",
"; c #72635C",
": c #73635C",
"> c #75645D",
", c #75655E",
"< c #76665E",
"1 c #7B6961",
"2 c #7D6B63",
"3 c #806D65",
"4 c #877369",
"5 c #87736A",
"6 c #88746A",
"7 c #8B766C",
"8 c #8C766D",
"9 c #9A8176",
"0 c #9A8276",
"q c #9B8277",
"w c #A0867A",
/* pixels */
"@@@@@@@@@@@@@@@@@@@@@@@@",
"++++++++++++++++++++++++",
"                        ",
"                        ",
"                        ",
"                        ",
"        O%5qq5$O        ",
"       #8wwwwww7#       ",
"      O8wwwwwwww7O      ",
"      %ww,:ww,,ww$      ",
"      6ww2X=-.1ww4      ",
"      0www>..;www9      ",
"      0www*..&www9      ",
"      6ww<.<<.<ww4      ",
"      $ww23ww32ww$      ",
"      O7wwwwwwww7o      ",
"       #7wwwwww7#       ",
"        o$4005$o        ",
"                        ",
"                        ",
"                        ",
"                        ",
"                        ",
"                        "
};
