/* XPM */
static char *close_active[] = {
/* columns rows colors chars-per-pixel */
"24 24 29 1 ",
"  c #2F2F2F",
". c gray19",
"X c #313030",
"o c #323232",
"O c #363231",
"+ c #373737",
"@ c #493D37",
"# c #4A3D37",
"$ c #4A3E37",
"% c #4E3F38",
"& c #4F4038",
"* c #4F4039",
"= c #504139",
"- c #54433A",
"; c #55433B",
": c #56443B",
"> c #59453C",
", c #5A463C",
"< c #5B463C",
"1 c #5A463D",
"2 c #5F483E",
"3 c #5F493E",
"4 c #60493E",
"5 c #614A3F",
"6 c #624A3F",
"7 c #694E41",
"8 c #6A4E41",
"9 c #6A4F41",
"0 c #6D5042",
/* pixels */
"++++++++++++++++++++++++",
"oooooooooooooooooooooooo",
"                        ",
"                        ",
"                        ",
"                        ",
"        X$3993#X        ",
"       O60000005O       ",
"      X6000000005X      ",
"      $00:-00::00@      ",
"      4001.*= >002      ",
"      8000;  -0007      ",
"      8000&  %0007      ",
"      400: :: :002      ",
"      #00,<00<,00@      ",
"      X5000000005X      ",
"       O50000005O       ",
"        X@2884@X        ",
"                        ",
"                        ",
"                        ",
"                        ",
"                        ",
"                        "
};
