/* XPM */
static char *close_active[] = {
/* columns rows colors chars-per-pixel */
"24 24 33 1 ",
"  c #09AA73",
". c #12AC77",
"X c #13AC78",
"o c #14AC78",
"O c #2FB386",
"+ c #30B386",
"@ c #35B489",
"# c #36B489",
"$ c #37B58A",
"% c #38B58A",
"& c #7FC4AD",
"* c #76C9AD",
"= c #7ECCB1",
"- c #7FCCB2",
"; c #80C5AD",
": c #81C5AE",
"> c #85CEB5",
", c #91D1BD",
"< c #94D2BE",
"1 c #95D2BE",
"2 c #96D3BF",
"3 c #98D3C0",
"4 c #9BD5C3",
"5 c #ADDACA",
"6 c #AFDBCC",
"7 c #B0DCCD",
"8 c #B4DDCE",
"9 c #C3D4CE",
"0 c #D3D8D6",
"q c #D4D8D7",
"w c gray85",
"e c gray92",
"r c #F8F8F9",
/* pixels */
"eeeeeeeeeeeeeeeeeeeeeeee",
"wwwwwwwwwwwwwwwwwwwwwwww",
"wwwwwwwwwwwwwwwwwwwwwwww",
"wwwwwwwwwwwwwwwwwwwwwwww",
"wwwwwwwwwwwwwwwwwwwwwwww",
"wwwwwwwwwwwwwwwwwwwwwwww",
"wwwwwwww0&#..#;0wwwwwwww",
"wwwwwww9O      +9wwwwwww",
"wwwwww0O        +0wwwwww",
"wwwwww&  13  11  :wwwwww",
"wwwwww@  -r65r>  $wwwwww",
"wwwwwwX   2rr4   owwwwww",
"wwwwwwX   7rr8   owwwwww",
"wwwwww@  <r,,r<  $wwwwww",
"wwwwww;  =*  *=  :wwwwww",
"wwwwww0+        +qwwwwww",
"wwwwwww9+      +9wwwwwww",
"wwwwwwwwq:$XX%:qwwwwwwww",
"wwwwwwwwwwwwwwwwwwwwwwww",
"wwwwwwwwwwwwwwwwwwwwwwww",
"wwwwwwwwwwwwwwwwwwwwwwww",
"wwwwwwwwwwwwwwwwwwwwwwww",
"wwwwwwwwwwwwwwwwwwwwwwww",
"wwwwwwwwwwwwwwwwwwwwwwww"
};
