/* XPM */
static char *close_prelight[] = {
/* columns rows colors chars-per-pixel */
"24 24 30 1 ",
"  c #47BF96",
". c #4DC099",
"X c #4EC099",
"o c #62C4A2",
"O c #63C4A3",
"+ c #66C5A4",
"@ c #67C5A5",
"# c #68C5A5",
"$ c #9ACDBC",
"% c #9ACEBC",
"& c #9BCEBD",
"* c #96D4BF",
"= c #9CD6C2",
"- c #9DD6C3",
"; c #A1D8C5",
": c #AADACA",
"> c #ACDACC",
", c #ADDBCC",
"< c #AFDBCD",
"1 c #B1DCCF",
"2 c #BEE0D5",
"3 c #CAD6D2",
"4 c #D5D8D7",
"5 c #D6D8D8",
"6 c gray85",
"7 c #C0E1D6",
"8 c #C1E1D6",
"9 c #C3E2D8",
"0 c gray92",
"q c #F8F8F9",
/* pixels */
"000000000000000000000000",
"666666666666666666666666",
"666666666666666666666666",
"666666666666666666666666",
"666666666666666666666666",
"666666666666666666666666",
"666666664$@..@%466666666",
"66666663o      O36666666",
"6666664o        O4666666",
"666666$  ,<  ,,  &666666",
"666666+  -q72q;  @666666",
"666666X   ,qq1   X666666",
"666666X   8qq9   X666666",
"666666+  >q::q>  @666666",
"666666%  =*  *=  &666666",
"6666664O        O5666666",
"66666663O      O36666666",
"666666665&@XX#&566666666",
"666666666666666666666666",
"666666666666666666666666",
"666666666666666666666666",
"666666666666666666666666",
"666666666666666666666666",
"666666666666666666666666"
};
