/* XPM */
static char *close_prelight[] = {
/* columns rows colors chars-per-pixel */
"24 24 41 1 ",
"  c #33BDEA",
". c #34BDEA",
"X c #37BFEA",
"o c #38BEE9",
"O c #3ABEE9",
"+ c #3BBEE9",
"@ c #3CBFE9",
"# c #3DBFE9",
"$ c #47C3EA",
"% c #48C3EA",
"& c #52C2E7",
"* c #53C3E7",
"= c #54C3E7",
"- c #A3D0DE",
"; c #A2D0DF",
": c #A3D0DF",
"> c #83CBE2",
", c #84CAE1",
"< c #85CBE1",
"1 c #84CBE2",
"2 c #BAE0ED",
"3 c #BFE1ED",
"4 c #CAD6DA",
"5 c #CBD7DA",
"6 c #CCD7DA",
"7 c gray85",
"8 c #C0E1EE",
"9 c #C3E3EE",
"0 c #C6E3EE",
"q c #C8E4EE",
"w c #D0E7EE",
"e c #D3E8EF",
"r c #D4E8EF",
"t c #D4E9EF",
"y c #D5E9EF",
"u c #D6E9EF",
"i c #DAEAF0",
"p c #EEEEEE",
"a c #F4F5F7",
"s c #F7F7F8",
"d c #F8F8F9",
/* pixels */
"pppppppppppppppppppppppp",
"777777777777777777777777",
"777777777777777777777777",
"777777777777777777777777",
"777777777777777777777777",
"777777774>&OO*1477777777",
"7777777;+      +:7777777",
"777777;.        .:777777",
"777774+  %    $  @577777",
"77777>   seXXwd   ,77777",
"77777&   8dyrd0   *77777",
"77777+    9ddq    +77777",
"77777+   Xuddio   @77777",
"77777&   ed33dt   *77777",
"777771   a2  2a   <77777",
"777774+          #677777",
"777777:.        .-777777",
"7777777:@      #-7777777",
"777777775,=++=<677777777",
"777777777777777777777777",
"777777777777777777777777",
"777777777777777777777777",
"777777777777777777777777",
"777777777777777777777777"
};
