/* XPM */
static char *close_active[] = {
/* columns rows colors chars-per-pixel */
"24 24 44 1 ",
"  c #00ACE5",
". c #01ACE5",
"X c #07ADE4",
"o c #04AEE5",
"O c #06AEE5",
"+ c #09AEE4",
"@ c #0AAEE4",
"# c #0BAEE4",
"$ c #0CAFE4",
"% c #0DAFE5",
"& c #19B3E5",
"* c #1BB4E7",
"= c #28B4E3",
"- c #29B5E3",
"; c #2AB5E3",
": c #2BB5E3",
"> c #6AC2DF",
", c #6BC2DF",
"< c #69C2E0",
"1 c #6AC2E0",
"2 c #91CADD",
"3 c #93CADD",
"4 c #92CBDD",
"5 c #ACDBEB",
"6 c #B2DDEC",
"7 c #B3DDEC",
"8 c #B8DFED",
"9 c #BBE0ED",
"0 c #BEE1ED",
"q c #C6D5DA",
"w c #C7D5DA",
"e c #C8D5DA",
"r c gray85",
"t c #C7E4ED",
"y c #CBE5EE",
"u c #CCE6EE",
"i c #CDE6EE",
"p c #CEE6EE",
"a c #CFE7EE",
"s c #D5E8F0",
"d c #EEEEEE",
"f c #F4F5F7",
"g c #F7F7F8",
"h c #F8F8F9",
/* pixels */
"dddddddddddddddddddddddd",
"rrrrrrrrrrrrrrrrrrrrrrrr",
"rrrrrrrrrrrrrrrrrrrrrrrr",
"rrrrrrrrrrrrrrrrrrrrrrrr",
"rrrrrrrrrrrrrrrrrrrrrrrr",
"rrrrrrrrq<-++;1qrrrrrrrr",
"rrrrrrr2#      #4rrrrrrr",
"rrrrrr2.        .4rrrrrr",
"rrrrrq#  *    &  $wrrrrr",
"rrrrr<   gyooth   >rrrrr",
"rrrrr=   7hpih9   ;rrrrr",
"rrrrr#    8hh0    #rrrrr",
"rrrrr#   OahhsX   $rrrrr",
"rrrrr-   uh66hu   ;rrrrr",
"rrrrr1   f5  5f   ,rrrrr",
"rrrrrq#          %errrrr",
"rrrrrr4.        .3rrrrrr",
"rrrrrrr4$      %3rrrrrrr",
"rrrrrrrrw>:@@:,errrrrrrr",
"rrrrrrrrrrrrrrrrrrrrrrrr",
"rrrrrrrrrrrrrrrrrrrrrrrr",
"rrrrrrrrrrrrrrrrrrrrrrrr",
"rrrrrrrrrrrrrrrrrrrrrrrr",
"rrrrrrrrrrrrrrrrrrrrrrrr"
};
