/* XPM */
static char *close_prelight[] = {
/* columns rows colors chars-per-pixel */
"24 24 30 1 ",
"  c #A976DD",
". c #AB7ADC",
"X c #AB7ADD",
"o c #AB7BDD",
"O c #B288DC",
"+ c #B289DC",
"@ c #B38BDC",
"# c #B48CDC",
"$ c #B48DDD",
"% c #C4AEDA",
"& c #C5AFDB",
"* c #C9AFE4",
"= c #CBB3E4",
"- c #CCB3E5",
"; c #CEB7E5",
": c #D1BCE7",
"> c #D2BEE7",
", c #D2BFE7",
"< c #D4CED9",
"1 c #D8D6D9",
"2 c #D8D7D9",
"3 c gray85",
"4 c #D3C0E7",
"5 c #D5C2E8",
"6 c #DACBE9",
"7 c #DBCDE9",
"8 c #DBCEE9",
"9 c #DCCFEA",
"0 c gray92",
"q c #F8F8F9",
/* pixels */
"000000000000000000000000",
"333333333333333333333333",
"333333333333333333333333",
"333333333333333333333333",
"333333333333333333333333",
"333333333333333333333333",
"333333331%#..#%133333333",
"3333333<O      +<3333333",
"3333331O        +1333333",
"333333%  ,4  ,,  &333333",
"333333@  -q76q;  #333333",
"333333X   ,qq5   o333333",
"333333X   8qq9   o333333",
"333333@  >q::q>  #333333",
"333333%  =*  *=  &333333",
"3333331+        +2333333",
"3333333<+      +<3333333",
"333333332&#XX$&233333333",
"333333333333333333333333",
"333333333333333333333333",
"333333333333333333333333",
"333333333333333333333333",
"333333333333333333333333",
"333333333333333333333333"
};
