/* XPM */
static char *close_prelight[] = {
/* columns rows colors chars-per-pixel */
"24 24 30 1 ",
"  c #47C786",
". c #4DC789",
"X c #4EC88A",
"o c #62CA95",
"O c #63CB96",
"+ c #66CB98",
"@ c #67CB98",
"# c #67CB99",
"$ c #68CC99",
"% c #9AD1B5",
"& c #9BD1B6",
"* c #96D8B7",
"= c #9CDABA",
"- c #9DDABB",
"; c #A1DBBE",
": c #AADDC4",
"> c #ACDDC6",
", c #ADDEC6",
"< c #AFDEC7",
"1 c #B1DFC9",
"2 c #BEE2D0",
"3 c #CAD7D0",
"4 c #D5D8D7",
"5 c #D6D9D7",
"6 c gray85",
"7 c #C0E3D1",
"8 c #C1E3D2",
"9 c #C3E4D4",
"0 c gray92",
"q c #F8F8F9",
/* pixels */
"000000000000000000000000",
"666666666666666666666666",
"666666666666666666666666",
"666666666666666666666666",
"666666666666666666666666",
"666666666666666666666666",
"666666664%@..@%466666666",
"66666663o      O36666666",
"6666664o        O4666666",
"666666%  ,<  ,,  &666666",
"666666+  -q72q;  #666666",
"666666X   ,qq1   X666666",
"666666X   8qq9   X666666",
"666666+  >q::q>  #666666",
"666666%  =*  *=  &666666",
"6666664O        O5666666",
"66666663O      O36666666",
"666666665&#XX$&566666666",
"666666666666666666666666",
"666666666666666666666666",
"666666666666666666666666",
"666666666666666666666666",
"666666666666666666666666",
"666666666666666666666666"
};
