/* XPM */
static char *close_prelight[] = {
/* columns rows colors chars-per-pixel */
"24 24 29 1 ",
"  c #2F2F2F",
". c gray19",
"X c #313131",
"o c gray20",
"O c gray22",
"+ c #393939",
"@ c gray33",
"# c #555555",
"$ c #565656",
"% c #5A5A5A",
"& c #5B5B5B",
"* c gray36",
"= c #5D5D5D",
"- c gray37",
"; c #646464",
": c gray40",
"> c DimGray",
", c #6A6A6A",
"< c gray42",
"1 c #6C6C6C",
"2 c gray55",
"3 c #8D8D8D",
"4 c #8E8E8E",
"5 c gray61",
"6 c #9D9D9D",
"7 c gray62",
"8 c gray63",
"9 c #A2A2A2",
"0 c gray64",
/* pixels */
"OOOOOOOOOOOOOOOOOOOOOOOO",
"oooooooooooooooooooooooo",
"                        ",
"                        ",
"                        ",
"        +<3773<+        ",
"       #60000006$       ",
"      #9000000009$      ",
"     +600500006006O     ",
"     <000X=99-.000,     ",
"     4000> %& ;0003     ",
"     60000:  ;00006     ",
"     60009%  $80006     ",
"     3000* >> *0003     ",
"     <000+1001+000>     ",
"     +600000000005O     ",
"      $9000000009@      ",
"       $60000005@       ",
"        O,2662>O        ",
"                        ",
"                        ",
"                        ",
"                        ",
"                        "
};
