/* XPM */
static char *close_pressed[] = {
/* columns rows colors chars-per-pixel */
"24 24 24 1 ",
"  c #2F2F2F",
". c gray19",
"X c gray20",
"o c #343434",
"O c #353535",
"+ c gray22",
"@ c gray27",
"# c #464646",
"$ c gray28",
"% c #484848",
"& c #494949",
"* c gray29",
"= c gray30",
"- c #4E4E4E",
"; c gray31",
": c #505050",
"> c #515151",
", c gray32",
"< c #656565",
"1 c gray40",
"2 c gray43",
"3 c #6F6F6F",
"4 c #717171",
"5 c #727272",
/* pixels */
"++++++++++++++++++++++++",
"XXXXXXXXXXXXXXXXXXXXXXXX",
"                        ",
"                        ",
"                        ",
"        O,133<,O        ",
"       @25555552#       ",
"      @5555555555#      ",
"     O255255553553o     ",
"     ,555.*44*.555>     ",
"     1555: %% -555<     ",
"     25555;  =55552     ",
"     25555$  @45553     ",
"     1555& :: &555<     ",
"     ,555O,55,O555>     ",
"     O255555555552o     ",
"      #5555555555@      ",
"       #35555552@       ",
"        o><33<>o        ",
"                        ",
"                        ",
"                        ",
"                        ",
"                        "
};
