/* XPM */
static char *close_active[] = {
/* columns rows colors chars-per-pixel */
"24 24 27 1 ",
"  c #2F2F2F",
". c gray19",
"X c #313131",
"o c gray20",
"O c gray21",
"+ c #373737",
"@ c gray22",
"# c #4E4E4E",
"$ c gray31",
"% c gray32",
"& c #535353",
"* c gray33",
"= c #555555",
"- c #565656",
"; c #5A5A5A",
": c #5B5B5B",
"> c #5D5D5D",
", c #5F5F5F",
"< c #606060",
"1 c gray38",
"2 c #7C7C7C",
"3 c gray49",
"4 c #7E7E7E",
"5 c gray54",
"6 c #8B8B8B",
"7 c #8E8E8E",
"8 c gray56",
/* pixels */
"@@@@@@@@@@@@@@@@@@@@@@@@",
"oooooooooooooooooooooooo",
"                        ",
"                        ",
"                        ",
"        +13663<+        ",
"       $58888885$       ",
"      $7888888887$      ",
"     +588588885885+     ",
"     1888X=77-.888<     ",
"     4888, && :8883     ",
"     58888>  ;88885     ",
"     58887%  $78885     ",
"     3888= ,, *8883     ",
"     <888+1881+888,     ",
"     +588888888885O     ",
"      $7888888887#      ",
"       $58888885#       ",
"        +<2552,O        ",
"                        ",
"                        ",
"                        ",
"                        ",
"                        "
};
