/* XPM */
static char *close_pressed[] = {
/* columns rows colors chars-per-pixel */
"24 24 35 1 ",
"  c #947F51",
". c #947F52",
"X c #958052",
"o c #978357",
"O c #978458",
"+ c #988459",
"@ c #988559",
"# c #A1906A",
"$ c #A1906B",
"% c #A2916B",
"& c #A2916C",
"* c #B5AB93",
"= c #B6AB93",
"- c #B6AB94",
"; c #C2BBAC",
": c #C3BCAD",
"> c #CBC1AB",
", c #CDC3AD",
"< c #CFC5B1",
"1 c #CFC6B1",
"2 c #D0C7B3",
"3 c #D1C8B5",
"4 c #D2C9B5",
"5 c #D2C9B6",
"6 c #D4CCB9",
"7 c #D5CCBA",
"8 c #D6CEBD",
"9 c #D3D1CD",
"0 c #D3D1CE",
"q c #D4D2CE",
"w c gray85",
"e c #EEEEEE",
"r c #FCFCFB",
"t c #FDFDFC",
"y c white",
/* pixels */
"eeeeeeeeeeeeeeeeeeeeeeee",
"wwwwwwwwwwwwwwwwwwwwwwww",
"wwwwwwwwwwwwwwwwwwwwwwww",
"wwwwwwwwwwwwwwwwwwwwwwww",
"wwwwwwwwwwwwwwwwwwwwwwww",
"wwwwwwww9=$oo%-9wwwwwwww",
"wwwwwww;O      O:wwwwwww",
"wwwwww;.        .:wwwwww",
"wwwww9O          +0wwwww",
"wwwww=   r,  >t   *wwwww",
"wwwww#   3y1<y7   %wwwww",
"wwwwwo   .5yy8X   Owwwww",
"wwwwwO   .2yy6.   +wwwww",
"wwwww$   <y44y1   %wwwww",
"wwwww-   r1..1r   -wwwww",
"wwwww9O          @qwwwww",
"wwwwww:.        .:wwwwww",
"wwwwwww:+      @:wwwwwww",
"wwwwwwww0*&oo&-qwwwwwwww",
"wwwwwwwwwwwwwwwwwwwwwwww",
"wwwwwwwwwwwwwwwwwwwwwwww",
"wwwwwwwwwwwwwwwwwwwwwwww",
"wwwwwwwwwwwwwwwwwwwwwwww",
"wwwwwwwwwwwwwwwwwwwwwwww"
};
