/* XPM */
static char *close_active[] = {
/* columns rows colors chars-per-pixel */
"24 24 41 1 ",
"  c #C8AC69",
". c #C8AC6A",
"X c #C8AE6B",
"o c #C9AD6C",
"O c #C8AE6D",
"+ c #CAAE6D",
"@ c #C9AE6E",
"# c #C9AE6F",
"$ c #C9AF6F",
"% c #C9AF70",
"& c #CCB377",
"* c #CCB478",
"= c #CBB47E",
"- c #CBB57E",
"; c #CCB57F",
": c #D1C29F",
"> c #D0C2A0",
", c #D1C2A0",
"< c #D3CAB5",
"1 c #D4CAB4",
"2 c #D4CBB5",
"3 c #D7D5CF",
"4 c #D7D5D0",
"5 c #D8D5D0",
"6 c gray85",
"7 c #E3DBC9",
"8 c #E4DDCD",
"9 c #E4DDCE",
"0 c #E5DFD1",
"q c #E6E0D3",
"w c #E6E1D4",
"e c #E9E4D9",
"r c #E9E5DB",
"t c #EAE6DC",
"y c #EAE6DD",
"u c #EBE7DD",
"i c #EBE8E1",
"p c #EEEEEE",
"a c #F6F5F6",
"s c #F7F7F8",
"d c #F8F8F9",
/* pixels */
"pppppppppppppppppppppppp",
"666666666666666666666666",
"666666666666666666666666",
"666666666666666666666666",
"666666666666666666666666",
"666666663:-OO;,366666666",
"66666661#      #26666666",
"6666661.        .2666666",
"666663#  *    &  $466666",
"66666:   srXXed   >66666",
"66666=   9dytdq   ;66666",
"66666#    0ddw    #66666",
"66666#   +uddio   $66666",
"66666-   td88dt   ;66666",
"66666,   a7  7a   >66666",
"666663#          %566666",
"6666662.        .<666666",
"66666662$      %<6666666",
"666666664>;@@;>566666666",
"666666666666666666666666",
"666666666666666666666666",
"666666666666666666666666",
"666666666666666666666666",
"666666666666666666666666"
};
