/* XPM */
static char *close_prelight[] = {
/* columns rows colors chars-per-pixel */
"24 24 41 1 ",
"  c #C9B27C",
". c #C9B27D",
"X c #CAB37F",
"o c #C9B47E",
"O c #C9B380",
"+ c #CAB480",
"@ c #CBB480",
"# c #CAB481",
"$ c #CAB582",
"% c #CDB888",
"& c #CDB989",
"* c #CCB98D",
"= c #CCB98E",
"- c #CCBA8E",
"; c #CDBA8F",
": c #D0C5A9",
"> c #D1C5A9",
", c #D1C5AA",
"< c #D4CCBA",
"1 c #D4CCBB",
"2 c #D4CDBB",
"3 c #D7D5D1",
"4 c #D8D6D1",
"5 c #D8D6D2",
"6 c gray85",
"7 c #E4DECE",
"8 c #E4DED2",
"9 c #E4DFD2",
"0 c #E5E0D5",
"q c #E6E1D7",
"w c #E7E2D8",
"e c #E9E5DC",
"r c #EAE6DE",
"t c #EAE7DF",
"y c #EAE7E0",
"u c #EBE7E0",
"i c #EBE9E4",
"p c #EEEEEE",
"a c #F6F5F6",
"s c #F7F7F8",
"d c #F8F8F9",
/* pixels */
"pppppppppppppppppppppppp",
"666666666666666666666666",
"666666666666666666666666",
"666666666666666666666666",
"666666666666666666666666",
"666666663>=OO-,366666666",
"6666666<#      #26666666",
"666666<.        .2666666",
"666663#  &    %  #466666",
"66666>   srooed   :66666",
"66666*   9dytdq   -66666",
"66666#    0ddw    #66666",
"66666#   @uddiX   #66666",
"66666=   rd88dt   -66666",
"66666,   a7  7a   ,66666",
"666663#          $566666",
"6666662.        .1666666",
"66666662#      $16666666",
"666666664:;++;,566666666",
"666666666666666666666666",
"666666666666666666666666",
"666666666666666666666666",
"666666666666666666666666",
"666666666666666666666666"
};
