/* XPM */
static char *close_pressed[] = {
/* columns rows colors chars-per-pixel */
"24 24 30 1 ",
"  c #2F2F2F",
". c gray19",
"X c gray20",
"o c #343332",
"O c #353332",
"+ c #353432",
"@ c gray22",
"# c #47403B",
"$ c #47413B",
"% c #48413C",
"& c #4A433D",
"* c #4B433D",
"= c #4B443E",
"- c #4C443E",
"; c #4C453E",
": c #4D453F",
"> c #514840",
", c #524941",
"< c #544A42",
"1 c #554A42",
"2 c #554B43",
"3 c #564B43",
"4 c #6A5A4D",
"5 c #6B5B4E",
"6 c #6C5B4E",
"7 c #756253",
"8 c #766353",
"9 c #786454",
"0 c #786455",
"q c #796555",
/* pixels */
"@@@@@@@@@@@@@@@@@@@@@@@@",
"XXXXXXXXXXXXXXXXXXXXXXXX",
"                        ",
"                        ",
"                        ",
"        +358852+        ",
"       $7qqqqqq7%       ",
"      $qqqqqqqqqq%      ",
"     +7qq7qqqq7qq7O     ",
"     3qqq.;99:.qqq1     ",
"     6qqq< ** >qqq5     ",
"     7qqqq,  >qqqq7     ",
"     7qqqq&  %0qqq7     ",
"     5qqq- << =qqq5     ",
"     2qqq+3qq3+qqq<     ",
"     +7qqqqqqqqqq7o     ",
"      %qqqqqqqqqq#      ",
"       %7qqqqqq7#       ",
"        O14774<o        ",
"                        ",
"                        ",
"                        ",
"                        ",
"                        "
};
