/* XPM */
static char *close_prelight[] = {
/* columns rows colors chars-per-pixel */
"24 24 37 1 ",
"  c #2F2F2F",
". c gray19",
"X c #313130",
"o c gray20",
"O c #393634",
"+ c #393735",
"@ c #3A3735",
"# c gray22",
"$ c #584E47",
"% c #594F47",
"& c #594F48",
"* c #595047",
"= c #5D534A",
"- c #5E534A",
"; c #5F544B",
": c #60554C",
"> c #61554C",
", c #63574D",
"< c #685B50",
"1 c #695C51",
"2 c #6B5D52",
"3 c #6D5F53",
"4 c #6E5F53",
"5 c #6F6054",
"6 c #706155",
"7 c #716255",
"8 c #947D69",
"9 c #957D6A",
"0 c #957E6A",
"q c #967E6B",
"w c #A68B74",
"e c #A78B74",
"r c #A88C75",
"t c #AB8F77",
"y c #AC8F77",
"u c #AC8F78",
"i c #AD9078",
/* pixels */
"########################",
"oooooooooooooooooooooooo",
"                        ",
"                        ",
"                        ",
"        @70rr96@        ",
"       %wiiiiiiw&       ",
"      %uiiiiiiiiu&      ",
"     @wiiwiiiiwiiw+     ",
"     7iiiX>yy,.iii5     ",
"     qiii3 -; 1iii9     ",
"     wiiii2  <iiiiw     ",
"     wiiiu=  *tiiiw     ",
"     0iii: 44 ;iii9     ",
"     6iii@7ii7@iii5     ",
"     @wiiiiiiiiiiwO     ",
"      &uiiiiiiiiu$      ",
"       &wiiiiiiw$       ",
"        +58ee85O        ",
"                        ",
"                        ",
"                        ",
"                        ",
"                        "
};
