/* XPM */
static char *close_pressed[] = {
/* columns rows colors chars-per-pixel */
"24 24 35 1 ",
"  c #2F2F2F",
". c #2F3031",
"X c gray19",
"o c gray20",
"O c #313236",
"+ c #313237",
"@ c #313337",
"# c gray22",
"$ c #383D4D",
"% c #383D4E",
"& c #383D4F",
"* c #393E4E",
"= c #393F52",
"- c #3A3F53",
"; c #3A4053",
": c #3A4054",
"> c #3B4156",
", c #3C435A",
"< c #3D445C",
"1 c #3D445E",
"2 c #3D455E",
"3 c #3D455F",
"4 c #3E455F",
"5 c #3D4560",
"6 c #3E4660",
"7 c #45517A",
"8 c #46527B",
"9 c #46527C",
"0 c #495788",
"q c #495888",
"w c #4A5888",
"e c #4A5889",
"r c #4A598C",
"t c #4B5A8C",
"y c #4B5A8D",
/* pixels */
"########################",
"oooooooooooooooooooooooo",
"                        ",
"                        ",
"                        ",
"        @68ee84@        ",
"       %0yyyyyy0*       ",
"      %tyyyyyyyyt*      ",
"     @0yywyyyywyyw+     ",
"     6yyy.:rr>Xyyy3     ",
"     9yyy1 =- ,yyy8     ",
"     0yyyy<  ,yyyy0     ",
"     0yyyt=  &tyyyw     ",
"     8yyy: 11 ;yyy8     ",
"     4yyy@5yy5@yyy2     ",
"     @0yyyyyyyyyywO     ",
"      *tyyyyyyyyt$      ",
"       *wyyyyyyw$       ",
"        +37qq72O        ",
"                        ",
"                        ",
"                        ",
"                        ",
"                        "
};
