/* XPM */
static char *close_prelight[] = {
/* columns rows colors chars-per-pixel */
"24 24 38 1 ",
"  c #2F2F2F",
". c #303031",
"X c #303132",
"o c gray20",
"O c #34353B",
"+ c #34363B",
"@ c #34363C",
"# c gray22",
"$ c #434A60",
"% c #444A61",
"& c #444B61",
"* c #444B62",
"= c #464D67",
"- c #464E68",
"; c #474E68",
": c #474F69",
"> c #484F6A",
", c #48506B",
"< c #49516D",
"1 c #4C5573",
"2 c #4C5575",
"3 c #4D5777",
"4 c #4E587A",
"5 c #4F597B",
"6 c #4F597C",
"7 c #505A7D",
"8 c #505A7E",
"9 c #6172A8",
"0 c #6272A9",
"q c #6273AA",
"w c #6373AB",
"e c #6B7DBD",
"r c #6A7DBE",
"t c #6B7EBE",
"y c #6B7EBF",
"u c #6D81C4",
"i c #6E81C5",
"p c #6E82C6",
/* pixels */
"########################",
"oooooooooooooooooooooooo",
"                        ",
"                        ",
"                        ",
"        @7qyy07@        ",
"       %rppppppr&       ",
"      %ippppppppi&      ",
"     @rppepppptppt+     ",
"     7pppX,uu<.ppp6     ",
"     wppp4 -; 2ppp0     ",
"     rpppp3  1ppppr     ",
"     rpppi=  *upppt     ",
"     qppp> 44 :ppp0     ",
"     7ppp@8pp8@ppp5     ",
"     @rppppppppppeO     ",
"      &ippppppppi$      ",
"       &tppppppe$       ",
"        +69yy95O        ",
"                        ",
"                        ",
"                        ",
"                        ",
"                        "
};
