/* XPM */
static char *close_active[] = {
/* columns rows colors chars-per-pixel */
"24 24 38 1 ",
"  c #2F2F2F",
". c gray19",
"X c #303032",
"o c gray20",
"O c #323439",
"+ c #32343A",
"@ c #33343B",
"# c gray22",
"$ c #3D435A",
"% c #3D445B",
"& c #3D445C",
"* c #3E4660",
"= c #3F4661",
"- c #3F4762",
"; c #3F4763",
": c #404863",
"> c #404864",
", c #404966",
"< c #424C6C",
"1 c #424C6D",
"2 c #434D6F",
"3 c #444E71",
"4 c #444E72",
"5 c #444F73",
"6 c #455074",
"7 c #455075",
"8 c #51619B",
"9 c #51629B",
"0 c #51629C",
"q c #52639D",
"w c #576BAD",
"e c #566AAE",
"r c #576BAE",
"t c #576BAF",
"y c #596DB3",
"u c #586DB4",
"i c #596EB4",
"p c #596EB5",
/* pixels */
"########################",
"oooooooooooooooooooooooo",
"                        ",
"                        ",
"                        ",
"        @70tt96@        ",
"       %eppppppe&       ",
"      %ippppppppi&      ",
"     @eppwpppprppr+     ",
"     7pppX>uu,.ppp5     ",
"     qppp3 =- 1ppp9     ",
"     epppp2  <ppppe     ",
"     epppi*  &ypppr     ",
"     0ppp: 44 ;ppp9     ",
"     6ppp@7pp7@ppp5     ",
"     @eppppppppppwO     ",
"      &ippppppppi$      ",
"       &rppppppw$       ",
"        +58rr85O        ",
"                        ",
"                        ",
"                        ",
"                        ",
"                        "
};
