/* XPM */
static char *close_active[] = {
/* columns rows colors chars-per-pixel */
"24 24 32 1 ",
"  c #2F2F2F",
". c #2E302F",
"X c #2F302F",
"o c #2F3030",
"O c #2E3130",
"+ c #2E3231",
"@ c #2B3934",
"# c #323232",
"$ c #373737",
"% c #1E5845",
"& c #1E5945",
"* c #1E5A45",
"= c #1B6049",
"- c #1A6249",
"; c #1A634A",
": c #176A4E",
"> c #176B4E",
", c #176C4F",
"< c #166D4F",
"1 c #18694D",
"2 c #0F7F59",
"3 c #147151",
"4 c #147352",
"5 c #157353",
"6 c #137553",
"7 c #107B56",
"8 c #107C57",
"9 c #117C57",
"0 c #107F59",
"q c #0A8C5F",
"w c #0A8D60",
"e c #089162",
/* pixels */
"$$$$$$$$$$$$$$$$$$$$$$$$",
"########################",
"                        ",
"                        ",
"                        ",
"                        ",
"        +*8ww8&+        ",
"       @0eeeeee2@       ",
"      +0eeeeeeee2+      ",
"      *ee,:ee,,ee%      ",
"      8ee5o-;X3ee7      ",
"      qeee>XX1eeeq      ",
"      qeee-..=eeeq      ",
"      8ee,.<<.,ee7      ",
"      &ee46ee64ee%      ",
"      +2eeeeeeee2O      ",
"       @2eeeeee2@       ",
"        O%7qq9%O        ",
"                        ",
"                        ",
"                        ",
"                        ",
"                        ",
"                        "
};
