/* XPM */
static char *close_prelight[] = {
/* columns rows colors chars-per-pixel */
"24 24 40 1 ",
"  c #2F2F2F",
". c #303031",
"X c #313132",
"o c gray20",
"O c #37353B",
"+ c #38363C",
"@ c #38363D",
"# c gray22",
"$ c #524A61",
"% c #534B63",
"& c #534C63",
"* c #574E69",
"= c #574F69",
"- c #584F6A",
"; c #59506B",
": c #59506C",
"> c #5A516D",
", c #5B526F",
"< c #605676",
"1 c #615677",
"2 c #635879",
"3 c #65597C",
"4 c #65597D",
"5 c #655A7E",
"6 c #665A7E",
"7 c #675B7F",
"8 c #675B80",
"9 c #675B81",
"0 c #8673AC",
"q c #8674AD",
"w c #8774AE",
"e c #8775AF",
"r c #957FC2",
"t c #957FC3",
"y c #9580C3",
"u c #9680C3",
"i c #9680C4",
"p c #9A83C9",
"a c #9A83CA",
"s c #9B84CB",
/* pixels */
"########################",
"oooooooooooooooooooooooo",
"                        ",
"                        ",
"                        ",
"        @8wiiq7@        ",
"       %tsssssst%       ",
"      %assssssssa%      ",
"     @tssrssssyssy+     ",
"     8sssX>pp,.sss6     ",
"     esss3 =- 1sssq     ",
"     tssss2  <sssst     ",
"     tsssa*  &psssy     ",
"     wsss: 44 ;sssq     ",
"     7sss@9ss9@sss5     ",
"     @tssssssssssrO     ",
"      %assssssssa$      ",
"       %yssssssr$       ",
"        +60uu05O        ",
"                        ",
"                        ",
"                        ",
"                        ",
"                        "
};
