/* XPM */
static char *close_pressed[] = {
/* columns rows colors chars-per-pixel */
"24 24 36 1 ",
"  c #2F2F2F",
". c gray19",
"X c #303031",
"o c gray20",
"O c #333237",
"+ c #343237",
"@ c #343238",
"# c gray22",
"$ c #423B51",
"% c #433B52",
"& c #433C52",
"* c #443C55",
"= c #453D56",
"- c #463D57",
"; c #463E58",
": c #473E58",
"> c #473E5A",
", c #4A405E",
"< c #4A405F",
"1 c #4B4161",
"2 c #4C4163",
"3 c #4D4163",
"4 c #4C4263",
"5 c #4D4264",
"6 c #4D4265",
"7 c #4E4265",
"8 c #5E4D82",
"9 c #5F4D83",
"0 c #5F4D84",
"q c #5F4E84",
"w c #675291",
"e c #675292",
"r c #695396",
"t c #695496",
"y c #6A5496",
"u c #6A5497",
/* pixels */
"########################",
"oooooooooooooooooooooooo",
"                        ",
"                        ",
"                        ",
"        @70ee96@        ",
"       $wuuuuuuw&       ",
"      $yuuuuuuuuy&      ",
"     @wuuwuuuueuue+     ",
"     7uuuX:rr>.uuu5     ",
"     quuu4 == <uuu9     ",
"     wuuuu1  ,uuuuw     ",
"     wuuuy*  %tuuue     ",
"     0uuu; 22 -uuu9     ",
"     6uuu@7uu7@uuu3     ",
"     @wuuuuuuuuuuwO     ",
"      &yuuuuuuuuy$      ",
"       &euuuuuuw$       ",
"        +58ee83O        ",
"                        ",
"                        ",
"                        ",
"                        ",
"                        "
};
