/* XPM */
static char *close_pressed[] = {
/* columns rows colors chars-per-pixel */
"24 24 37 1 ",
"  c #A97747",
". c #A97848",
"X c #AA7848",
"o c #AB7B4D",
"O c #AB7B4E",
"+ c #AB7C4E",
"@ c #AC7C4F",
"# c #AC7D50",
"$ c #B28962",
"% c #B28A63",
"& c #B38A63",
"* c #B38B64",
"= c #C0A78E",
"- c #C1A78E",
"; c #C0A78F",
": c #C9B9A9",
"> c #CAB9A9",
", c #C9B9AA",
"< c #D6BDA6",
"1 c #D7BFA8",
"2 c #D8C2AC",
"3 c #D9C2AD",
"4 c #D9C3AE",
"5 c #DAC5B0",
"6 c #DBC5B1",
"7 c #DBC6B2",
"8 c #DDC9B5",
"9 c #DDC9B6",
"0 c #DECBB9",
"q c #D5D0CC",
"w c #D5D1CD",
"e c #D5D1CE",
"r c gray85",
"t c #EEEEEE",
"y c #FDFCFB",
"u c #FEFDFC",
"i c white",
/* pixels */
"tttttttttttttttttttttttt",
"rrrrrrrrrrrrrrrrrrrrrrrr",
"rrrrrrrrrrrrrrrrrrrrrrrr",
"rrrrrrrrrrrrrrrrrrrrrrrr",
"rrrrrrrrrrrrrrrrrrrrrrrr",
"rrrrrrrrq=%oo&-qrrrrrrrr",
"rrrrrrr:+      +>rrrrrrr",
"rrrrrr:.        .>rrrrrr",
"rrrrrq+          @wrrrrr",
"rrrrr=   y1  <u   =rrrrr",
"rrrrr$   5i32i9   &rrrrr",
"rrrrrO   .7ii0X   +rrrrr",
"rrrrr+   .4ii8.   @rrrrr",
"rrrrr%   2i66i3   &rrrrr",
"rrrrr-   y3..3y   ;rrrrr",
"rrrrrq+          #errrrr",
"rrrrrr>.        .,rrrrrr",
"rrrrrrr>@      #,rrrrrrr",
"rrrrrrrrw=*OO*;errrrrrrr",
"rrrrrrrrrrrrrrrrrrrrrrrr",
"rrrrrrrrrrrrrrrrrrrrrrrr",
"rrrrrrrrrrrrrrrrrrrrrrrr",
"rrrrrrrrrrrrrrrrrrrrrrrr",
"rrrrrrrrrrrrrrrrrrrrrrrr"
};
