/* XPM */
static char *close_prelight[] = {
/* columns rows colors chars-per-pixel */
"24 24 39 1 ",
"  c #DCAA7A",
". c #DCAA7B",
"X c #DDAB7D",
"o c #DCAC7C",
"O c #DCAC7E",
"+ c #DCAC7F",
"@ c #DCAD7F",
"# c #DCAD80",
"$ c #DEB186",
"% c #DEB287",
"& c #DBB38C",
"* c #DCB38C",
"= c #DCB38D",
"- c #DCB48D",
"; c #DAC1A8",
": c #DBC1A8",
"> c #DAC1A9",
", c #DBC1A9",
"< c #DACABA",
"1 c #D9D5D1",
"2 c #D9D5D2",
"3 c gray85",
"4 c #E9DBCE",
"5 c #E9DCD1",
"6 c #E9DDD2",
"7 c #E9DFD5",
"8 c #EAE0D6",
"9 c #EAE0D7",
"0 c #ECE3DC",
"q c #ECE5DE",
"w c #EDE5DE",
"e c #EDE5DF",
"r c #EDE6DE",
"t c #EDE6DF",
"y c #EEE8E3",
"u c #EEEEEE",
"i c #F6F5F6",
"p c #F7F7F8",
"a c #F8F8F9",
/* pixels */
"uuuuuuuuuuuuuuuuuuuuuuuu",
"333333333333333333333333",
"333333333333333333333333",
"333333333333333333333333",
"333333333333333333333333",
"333333331:*OO=,133333333",
"3333333<+      +<3333333",
"333333<.        .<333333",
"333331+  %    $  @133333",
"33333:   pqoo0a   ;33333",
"33333&   6atra8   =33333",
"33333+    7aa9    +33333",
"33333+   OtaayX   @33333",
"33333*   wa55ae   =33333",
"33333,   i4  4i   >33333",
"333331+          #233333",
"333333<.        .<333333",
"3333333<@      #<3333333",
"333333331;-OO->233333333",
"333333333333333333333333",
"333333333333333333333333",
"333333333333333333333333",
"333333333333333333333333",
"333333333333333333333333"
};
