/* XPM */
static char *close_prelight[] = {
/* columns rows colors chars-per-pixel */
"24 24 31 1 ",
"  c #7586DD",
". c #7989DC",
"X c #798ADD",
"o c #7A8ADD",
"O c #8795DC",
"+ c #8896DC",
"@ c #8A98DC",
"# c #8B98DC",
"$ c #8B99DC",
"% c #8C99DD",
"& c #ADB5DA",
"* c #AEB5DA",
"= c #AFB6DB",
"- c #AEB7E4",
"; c #B2BAE4",
": c #B3BBE5",
"> c #B6BEE5",
", c #BCC3E7",
"< c #BEC5E7",
"1 c #CED0D9",
"2 c #D6D7D9",
"3 c #D7D7D9",
"4 c gray85",
"5 c #C0C6E7",
"6 c #C2C8E8",
"7 c #CBD0E9",
"8 c #CCD1E9",
"9 c #CDD2E9",
"0 c #CFD4EA",
"q c gray92",
"w c #F8F8F9",
/* pixels */
"qqqqqqqqqqqqqqqqqqqqqqqq",
"444444444444444444444444",
"444444444444444444444444",
"444444444444444444444444",
"444444444444444444444444",
"444444444444444444444444",
"444444442&#..#*244444444",
"44444441O      +14444444",
"4444442O        +2444444",
"444444&  <5  <<  =444444",
"444444@  :w87w>  $444444",
"444444X   <ww6   o444444",
"444444X   9ww0   o444444",
"444444@  <w,,w<  $444444",
"444444*  ;-  -;  =444444",
"4444442+        +3444444",
"44444441+      +14444444",
"444444443=$XX%=344444444",
"444444444444444444444444",
"444444444444444444444444",
"444444444444444444444444",
"444444444444444444444444",
"444444444444444444444444",
"444444444444444444444444"
};
